<svg width="140" height="160" viewBox="0 0 140 160" fill="none" xmlns="http://www.w3.org/2000/svg">
<rect width="140" height="160" rx="20" fill="#EAFDFF"/>
<g clip-path="url(#clip0_557_210)">
<path d="M60.0416 48.9792C51.9791 44.5417 40.4166 50.1667 40.4166 50.1667C40.4166 50.1667 41.9375 62.875 50 67.3125C58.0625 71.75 69.625 66.2083 69.625 66.2083C69.625 66.2083 68.1041 53.4167 60.0416 48.9792Z" stroke="#1CE8FF" stroke-width="4" stroke-miterlimit="10" stroke-linecap="round"/>
<path d="M85.4584 68.9167C87.6418 68.8295 89.7778 68.2528 91.7084 67.2292C99.7292 62.7917 101.25 50.1667 101.25 50.1667C101.25 50.1667 89.6875 44.625 81.625 49.0625C73.5625 53.5 70.8334 66.8333 70.8334 66.8333V96" stroke="#144895" stroke-width="4" stroke-miterlimit="10" stroke-linecap="round"/>
</g>
<path d="M35.9453 130.586L35.4766 130.07C35.2891 129.461 35.2188 128.805 35.2656 128.102L35.6406 124.586H35.5703L35.3359 124.656L35.1016 125.102L33.6719 126.672H33.5312L33.1562 127.211L31.0469 127.281V126.906L31.2812 126.602L32.7109 125.031H32.8516L33.0859 124.586L33.6016 123.977L34.5156 122.992H34.6562L34.9609 122.477L37.8906 119.312H38.0547L38.3359 118.773L38.5703 118.703C38.9766 118.203 39.25 117.656 39.3906 117.062L38.875 116.758C37.625 116.898 36.4297 117.195 35.2891 117.648C34.1641 118.102 32.9297 118.305 31.5859 118.258V117.883C32.3359 117.523 33.1094 117.234 33.9062 117.016C34.7031 116.781 35.5078 116.594 36.3203 116.453L36.6953 111.484H38.6406L38.7344 112.164C38.625 112.82 38.5469 113.5 38.5 114.203C38.4531 114.891 38.4297 115.586 38.4297 116.289C39.4297 116.242 40.3828 116.297 41.2891 116.453V116.594L41.5 116.664V117.578L40.9141 118.633L40.6797 118.703L40.3047 119.383L40.0703 119.453L39.8594 119.922L38.5 121.328H38.3359L38.125 121.797L37.6797 122.242H37.5156L37.3047 122.688L36.8359 123.156H36.6953L36.625 123.531H37.75L37.8203 124.586H37.9609C38.3672 123.68 38.875 122.797 39.4844 121.938H41.5938V122.312C40.9844 123.125 40.4766 124.008 40.0703 124.961H40.3047C41.2578 124.555 42.3125 124.43 43.4688 124.586V124.961C42.6562 125.305 41.7969 125.57 40.8906 125.758C40 125.93 39.0547 125.961 38.0547 125.852L37.8906 125.781L37.8203 125.477H37.6797L37.375 129.086L37.75 130.07L37.9609 130.211V130.586H35.9453ZM49.3281 130.445V130.07C50.125 129.008 50.7578 127.875 51.2266 126.672C51.7109 125.469 51.9297 124.164 51.8828 122.758C51.7422 121.961 51.4219 121.266 50.9219 120.672C50.3594 120.219 49.7031 119.992 48.9531 119.992C47.8438 120.195 46.8359 120.602 45.9297 121.211C45.0391 121.805 43.9688 122.023 42.7188 121.867V121.492C43.4688 120.945 44.2656 120.508 45.1094 120.18C45.9688 119.852 46.8516 119.609 47.7578 119.453H50.9219C51.6094 119.562 52.2578 119.844 52.8672 120.297L53.1719 120.578C53.5156 121.078 53.75 121.648 53.875 122.289C54 122.914 54.0391 123.578 53.9922 124.281C53.8516 125.438 53.5547 126.531 53.1016 127.562C52.6484 128.578 52.0703 129.539 51.3672 130.445H49.3281ZM44.2188 128.195C44.0625 127.945 44.0078 127.641 44.0547 127.281L45.2734 123.062H47.3828V123.438C47.1797 124.094 46.9609 124.766 46.7266 125.453C46.5078 126.125 46.3516 126.812 46.2578 127.516H47.1484V127.891C46.2422 128.188 45.2656 128.289 44.2188 128.195ZM69.625 131.125V130.75C70.2656 129.797 70.7266 128.766 71.0078 127.656C71.2891 126.547 71.3984 125.391 71.3359 124.188C71.1953 123.188 70.7734 122.289 70.0703 121.492L68.6406 120.438L67.6562 120.133C67.4062 121.492 67.0547 122.812 66.6016 124.094C66.1484 125.359 65.5 126.547 64.6562 127.656L64.4219 127.727L64.3516 127.961C63.6484 128.555 62.8281 128.914 61.8906 129.039C60.9688 129.164 60.0078 129.203 59.0078 129.156C57.8984 129.156 56.9453 128.805 56.1484 128.102C55.6484 127.508 55.4453 126.805 55.5391 125.992C55.7422 124.898 56.2422 123.945 57.0391 123.133L57.2734 123.062L57.3438 122.852L58.0234 122.242H58.1875L58.2578 122.008L59.6875 121.047V120.438C59.5312 119.484 59.4141 118.531 59.3359 117.578C59.2734 116.625 59.1406 115.695 58.9375 114.789H61.0469C61.1875 115.648 61.3047 116.516 61.3984 117.391C61.5078 118.266 61.6094 119.133 61.7031 119.992H61.9375C62.5469 119.789 63.1484 119.625 63.7422 119.5C64.3516 119.375 65.0078 119.336 65.7109 119.383L66.2969 113.734L66.2266 113.289H68.3359L68.4062 114.555L67.7969 119.383C68.6094 119.43 69.3516 119.57 70.0234 119.805C70.7109 120.023 71.3516 120.383 71.9453 120.883C72.6016 121.586 73.0391 122.367 73.2578 123.227C73.4922 124.07 73.5547 124.992 73.4453 125.992C73.3047 126.898 73.1016 127.797 72.8359 128.688C72.5859 129.562 72.2109 130.375 71.7109 131.125H69.625ZM61.6328 128.031C62.5859 127.438 63.3125 126.609 63.8125 125.547C64.2188 124.641 64.5547 123.727 64.8203 122.805C65.1016 121.883 65.3438 120.945 65.5469 119.992H65.1719C64.0781 120.289 63.0234 120.711 62.0078 121.258L61.9375 121.797L62.8516 126.227H60.7422L59.9922 122.852H59.8281L59.6172 122.922L59.5234 123.133C58.9297 123.695 58.4297 124.328 58.0234 125.031C57.7734 125.531 57.6484 126.055 57.6484 126.602C57.7578 127.055 57.9844 127.453 58.3281 127.797C58.875 128.25 59.4766 128.531 60.1328 128.641L61.6328 128.031ZM85.1641 130.961V130.586L85.9141 130.141C86.6641 128.938 87.2734 127.688 87.7422 126.391C88.2266 125.078 88.5234 123.695 88.6328 122.242C88.5234 121.539 88.2969 120.883 87.9531 120.273C87.3438 119.68 86.6172 119.406 85.7734 119.453C84.6641 119.703 83.5859 120.078 82.5391 120.578C82.3359 121.531 82.2109 122.516 82.1641 123.531C82.1172 124.531 82.0938 125.531 82.0938 126.531L82.2344 128.195H80.125L79.9844 124.656L80.1953 121.867H80.0547L78.0156 123.297L76.9609 124.352H74.8516V123.977L75.8359 122.992C76.5391 122.445 77.2656 121.945 78.0156 121.492C78.7656 121.039 79.5469 120.633 80.3594 120.273L80.875 116.758H82.9141V117.508L82.6094 119.312H82.9141C83.6172 119.109 84.3672 119 85.1641 118.984C85.9766 118.953 86.7812 118.938 87.5781 118.938C88.2812 118.984 88.9297 119.18 89.5234 119.523L90.4375 120.742C90.6406 121.445 90.7422 122.195 90.7422 122.992C90.5859 124.398 90.2656 125.727 89.7812 126.977C89.3125 128.227 88.6797 129.406 87.8828 130.516C87.1328 130.969 86.2266 131.117 85.1641 130.961ZM92.6875 124.188V123.977C92.3906 122.773 92.2188 121.539 92.1719 120.273V117.039H94.2812V120.367L94.7969 124.188H92.6875ZM106.656 131.805V131.43C107 130.773 107.336 130.094 107.664 129.391C107.992 128.688 108.156 127.938 108.156 127.141L107.852 126.602C107.555 126.305 107.18 126.18 106.727 126.227L102.297 127.656H99.2734L98.5234 127.281C98.1172 126.672 97.9141 125.992 97.9141 125.242C97.9141 124.492 97.9141 123.742 97.9141 122.992C98.0234 122.195 98.125 121.422 98.2188 120.672C98.3281 119.906 98.6328 119.227 99.1328 118.633C100.086 118.133 101.188 117.953 102.438 118.094V118.469C101.938 118.578 101.484 118.781 101.078 119.078C100.578 119.875 100.273 120.766 100.164 121.75C100.07 122.734 100 123.727 99.9531 124.727C99.9062 125.57 100.156 126.32 100.703 126.977L101.008 127.047C101.758 126.797 102.523 126.539 103.305 126.273C104.086 125.992 104.875 125.805 105.672 125.711H108.672C109.234 125.758 109.688 125.977 110.031 126.367C110.234 126.883 110.312 127.461 110.266 128.102C110.109 128.758 109.891 129.391 109.609 130C109.344 130.594 109.062 131.195 108.766 131.805H106.656ZM102.367 116.664V116.289H102.508C103.117 115.492 103.555 114.633 103.82 113.711C104.102 112.773 104.289 111.805 104.383 110.805H106.492V111.414C106.398 112.305 106.211 113.164 105.93 113.992C105.664 114.82 105.273 115.617 104.758 116.383L104.477 116.664H102.367Z" fill="#144895"/>
<defs>
<clipPath id="clip0_557_210">
<rect width="100" height="100" fill="white" transform="translate(20 21)"/>
</clipPath>
</defs>
</svg>
