<svg width="164" height="24" viewBox="0 0 164 24" fill="none" xmlns="http://www.w3.org/2000/svg">
<path d="M13.3732 16.1285C12.4274 17.0171 12.0914 17.0883 12.0101 17.0886C11.9837 17.0377 11.8961 16.7714 12.1692 15.7448C12.3672 15 12.6759 14.1344 12.9483 13.3706C13.1399 12.8333 13.3054 12.3693 13.3944 12.0514C13.6234 11.2339 13.5991 10.6577 13.3204 10.2901C13.1909 10.1195 12.9414 9.91602 12.4873 9.91602C11.4904 9.91602 10.0758 10.9242 9.61706 11.7496C9.3412 12.2459 9.4304 12.5865 9.55378 12.785L9.74732 13.0964L10.0096 12.8401C10.7761 12.0911 11.1021 11.9373 11.2112 11.906C11.307 12.2868 10.8037 13.7826 10.5277 14.6027C10.369 15.0743 10.2192 15.5196 10.1222 15.8723C9.7739 17.1395 9.7776 17.9827 10.1335 18.4496C10.3236 18.6989 10.6087 18.8307 10.9581 18.8307C12.0731 18.8307 13.5863 17.5193 14.1852 16.9555L14.409 16.7448L13.5786 15.9357L13.3732 16.1285Z" fill="#EAFDFF"/>
<path d="M12.9185 8.46122C13.8275 8.46122 14.5645 7.72427 14.5645 6.81521C14.5645 5.90614 13.8275 5.16919 12.9185 5.16919C12.0094 5.16919 11.2725 5.90614 11.2725 6.81521C11.2725 7.72427 12.0094 8.46122 12.9185 8.46122Z" fill="#EAFDFF"/>
<path d="M12 0.5C18.3513 0.5 23.5 5.64872 23.5 12C23.5 18.3513 18.3513 23.5 12 23.5C5.64872 23.5 0.5 18.3513 0.5 12C0.5 5.64872 5.64872 0.5 12 0.5ZM12 2.5C6.76125 2.5 2.5 6.76125 2.5 12C2.5 17.2388 6.76125 21.5 12 21.5C17.2388 21.5 21.5 17.2388 21.5 12C21.5 6.76125 17.2388 2.5 12 2.5Z" fill="#EAFDFF" stroke="#144895"/>
<path d="M41.464 8.5C41.408 8.58 41.356 8.684 41.308 8.812C41.26 8.932 41.22 9.04 41.188 9.136C41.084 9.536 40.932 9.976 40.732 10.456C40.532 10.928 40.292 11.408 40.012 11.896C39.732 12.376 39.412 12.832 39.052 13.264C38.508 13.928 37.856 14.536 37.096 15.088C36.344 15.632 35.404 16.112 34.276 16.528L33.412 15.748C34.148 15.532 34.808 15.272 35.392 14.968C35.976 14.656 36.5 14.312 36.964 13.936C37.428 13.56 37.84 13.16 38.2 12.736C38.512 12.368 38.796 11.964 39.052 11.524C39.316 11.084 39.54 10.644 39.724 10.204C39.908 9.756 40.04 9.352 40.12 8.992H35.668L36.052 8.128C36.148 8.128 36.328 8.128 36.592 8.128C36.856 8.128 37.156 8.128 37.492 8.128C37.836 8.128 38.176 8.128 38.512 8.128C38.848 8.128 39.14 8.128 39.388 8.128C39.644 8.128 39.808 8.128 39.88 8.128C40.04 8.128 40.188 8.12 40.324 8.104C40.46 8.08 40.572 8.048 40.66 8.008L41.464 8.5ZM37.444 6.676C37.34 6.836 37.24 7.008 37.144 7.192C37.048 7.368 36.972 7.512 36.916 7.624C36.676 8.064 36.376 8.54 36.016 9.052C35.656 9.556 35.228 10.056 34.732 10.552C34.236 11.048 33.664 11.512 33.016 11.944L32.188 11.32C32.708 11.016 33.172 10.684 33.58 10.324C33.988 9.964 34.344 9.6 34.648 9.232C34.96 8.864 35.224 8.512 35.44 8.176C35.656 7.84 35.828 7.536 35.956 7.264C36.02 7.16 36.088 7.016 36.16 6.832C36.24 6.64 36.296 6.468 36.328 6.316L37.444 6.676ZM52.312 6.892C52.304 7.044 52.296 7.208 52.288 7.384C52.28 7.552 52.276 7.736 52.276 7.936C52.276 8.096 52.276 8.3 52.276 8.548C52.276 8.796 52.276 9.044 52.276 9.292C52.276 9.532 52.276 9.728 52.276 9.88C52.276 10.6 52.248 11.212 52.192 11.716C52.144 12.22 52.068 12.652 51.964 13.012C51.868 13.364 51.74 13.676 51.58 13.948C51.42 14.22 51.232 14.484 51.016 14.74C50.76 15.044 50.464 15.312 50.128 15.544C49.8 15.768 49.464 15.956 49.12 16.108C48.776 16.268 48.456 16.396 48.16 16.492L47.38 15.664C47.932 15.528 48.452 15.336 48.94 15.088C49.436 14.832 49.872 14.492 50.248 14.068C50.464 13.82 50.636 13.568 50.764 13.312C50.9 13.048 51 12.756 51.064 12.436C51.136 12.116 51.184 11.744 51.208 11.32C51.232 10.896 51.244 10.4 51.244 9.832C51.244 9.672 51.244 9.472 51.244 9.232C51.244 8.992 51.244 8.752 51.244 8.512C51.244 8.264 51.244 8.072 51.244 7.936C51.244 7.736 51.236 7.552 51.22 7.384C51.212 7.208 51.2 7.044 51.184 6.892H52.312ZM46.744 6.988C46.736 7.1 46.724 7.236 46.708 7.396C46.7 7.556 46.696 7.708 46.696 7.852C46.696 7.908 46.696 8.036 46.696 8.236C46.696 8.428 46.696 8.66 46.696 8.932C46.696 9.204 46.696 9.492 46.696 9.796C46.696 10.1 46.696 10.396 46.696 10.684C46.696 10.964 46.696 11.208 46.696 11.416C46.696 11.624 46.696 11.772 46.696 11.86C46.696 12.012 46.7 12.176 46.708 12.352C46.724 12.52 46.736 12.66 46.744 12.772H45.64C45.656 12.676 45.668 12.544 45.676 12.376C45.692 12.2 45.7 12.024 45.7 11.848C45.7 11.768 45.7 11.624 45.7 11.416C45.7 11.2 45.7 10.952 45.7 10.672C45.7 10.392 45.7 10.1 45.7 9.796C45.7 9.492 45.7 9.204 45.7 8.932C45.7 8.66 45.7 8.428 45.7 8.236C45.7 8.036 45.7 7.908 45.7 7.852C45.7 7.748 45.696 7.608 45.688 7.432C45.68 7.248 45.668 7.1 45.652 6.988H46.744ZM64.6 7.972C64.56 8.02 64.508 8.1 64.444 8.212C64.388 8.316 64.34 8.412 64.3 8.5C64.148 8.892 63.948 9.328 63.7 9.808C63.452 10.28 63.176 10.748 62.872 11.212C62.568 11.676 62.248 12.096 61.912 12.472C61.472 12.968 60.988 13.452 60.46 13.924C59.932 14.388 59.376 14.824 58.792 15.232C58.208 15.632 57.6 15.976 56.968 16.264L56.2 15.46C56.848 15.204 57.468 14.888 58.06 14.512C58.66 14.128 59.22 13.712 59.74 13.264C60.268 12.808 60.736 12.352 61.144 11.896C61.416 11.584 61.684 11.236 61.948 10.852C62.22 10.46 62.46 10.064 62.668 9.664C62.884 9.256 63.04 8.888 63.136 8.56C63.072 8.56 62.92 8.56 62.68 8.56C62.44 8.56 62.156 8.56 61.828 8.56C61.5 8.56 61.156 8.56 60.796 8.56C60.436 8.56 60.092 8.56 59.764 8.56C59.436 8.56 59.152 8.56 58.912 8.56C58.68 8.56 58.528 8.56 58.456 8.56C58.32 8.56 58.164 8.564 57.988 8.572C57.82 8.58 57.664 8.588 57.52 8.596C57.384 8.604 57.292 8.612 57.244 8.62V7.528C57.3 7.536 57.4 7.548 57.544 7.564C57.696 7.572 57.856 7.58 58.024 7.588C58.192 7.596 58.336 7.6 58.456 7.6C58.544 7.6 58.704 7.6 58.936 7.6C59.168 7.6 59.444 7.6 59.764 7.6C60.092 7.6 60.432 7.6 60.784 7.6C61.136 7.6 61.472 7.6 61.792 7.6C62.12 7.6 62.4 7.6 62.632 7.6C62.864 7.6 63.016 7.6 63.088 7.6C63.288 7.6 63.464 7.592 63.616 7.576C63.776 7.56 63.9 7.536 63.988 7.504L64.6 7.972ZM62.068 11.836C62.396 12.108 62.732 12.408 63.076 12.736C63.428 13.064 63.772 13.404 64.108 13.756C64.444 14.1 64.756 14.432 65.044 14.752C65.332 15.064 65.58 15.348 65.788 15.604L64.948 16.324C64.668 15.94 64.332 15.528 63.94 15.088C63.548 14.64 63.132 14.196 62.692 13.756C62.26 13.308 61.824 12.896 61.384 12.52L62.068 11.836ZM71.98 10.504C72.364 10.728 72.768 10.976 73.192 11.248C73.616 11.52 74.036 11.804 74.452 12.1C74.876 12.388 75.28 12.672 75.664 12.952C76.048 13.232 76.388 13.496 76.684 13.744L75.976 14.572C75.704 14.324 75.376 14.052 74.992 13.756C74.616 13.452 74.216 13.148 73.792 12.844C73.368 12.532 72.944 12.232 72.52 11.944C72.096 11.656 71.7 11.396 71.332 11.164L71.98 10.504ZM77.476 8.308C77.42 8.396 77.368 8.504 77.32 8.632C77.272 8.752 77.228 8.86 77.188 8.956C77.076 9.364 76.916 9.804 76.708 10.276C76.5 10.748 76.256 11.224 75.976 11.704C75.696 12.176 75.376 12.632 75.016 13.072C74.48 13.736 73.808 14.376 73 14.992C72.2 15.6 71.232 16.112 70.096 16.528L69.232 15.784C69.976 15.552 70.652 15.268 71.26 14.932C71.876 14.588 72.428 14.212 72.916 13.804C73.404 13.396 73.828 12.976 74.188 12.544C74.5 12.176 74.784 11.772 75.04 11.332C75.304 10.892 75.532 10.456 75.724 10.024C75.916 9.584 76.056 9.176 76.144 8.8H71.692L72.076 7.948H75.892C76.052 7.948 76.2 7.94 76.336 7.924C76.472 7.9 76.588 7.868 76.684 7.828L77.476 8.308ZM73.432 6.58C73.328 6.74 73.228 6.908 73.132 7.084C73.036 7.26 72.956 7.404 72.892 7.516C72.652 7.956 72.34 8.44 71.956 8.968C71.58 9.488 71.136 10.008 70.624 10.528C70.12 11.048 69.548 11.532 68.908 11.98L68.104 11.356C68.792 10.932 69.388 10.464 69.892 9.952C70.396 9.44 70.82 8.94 71.164 8.452C71.508 7.964 71.772 7.54 71.956 7.18C72.02 7.076 72.092 6.932 72.172 6.748C72.252 6.556 72.308 6.384 72.34 6.232L73.432 6.58ZM85.288 15.748C85.312 15.652 85.328 15.548 85.336 15.436C85.352 15.316 85.36 15.196 85.36 15.076C85.36 14.996 85.36 14.82 85.36 14.548C85.36 14.276 85.36 13.944 85.36 13.552C85.36 13.152 85.36 12.72 85.36 12.256C85.36 11.792 85.36 11.328 85.36 10.864C85.36 10.392 85.36 9.952 85.36 9.544C85.36 9.136 85.36 8.784 85.36 8.488C85.36 8.192 85.36 7.992 85.36 7.888C85.36 7.656 85.352 7.464 85.336 7.312C85.32 7.152 85.308 7.048 85.3 7H86.404C86.404 7.048 86.396 7.152 86.38 7.312C86.364 7.472 86.356 7.664 86.356 7.888C86.356 8 86.356 8.2 86.356 8.488C86.356 8.768 86.356 9.112 86.356 9.52C86.356 9.92 86.356 10.352 86.356 10.816C86.356 11.272 86.356 11.724 86.356 12.172C86.356 12.62 86.356 13.036 86.356 13.42C86.356 13.796 86.356 14.108 86.356 14.356C86.356 14.604 86.356 14.756 86.356 14.812C86.732 14.636 87.132 14.404 87.556 14.116C87.98 13.828 88.392 13.492 88.792 13.108C89.2 12.724 89.556 12.308 89.86 11.86L90.424 12.676C90.08 13.14 89.676 13.584 89.212 14.008C88.756 14.432 88.28 14.812 87.784 15.148C87.288 15.484 86.804 15.768 86.332 16C86.236 16.056 86.152 16.108 86.08 16.156C86.016 16.204 85.964 16.244 85.924 16.276L85.288 15.748ZM79.792 15.688C80.296 15.328 80.724 14.892 81.076 14.38C81.428 13.868 81.696 13.32 81.88 12.736C81.968 12.464 82.036 12.124 82.084 11.716C82.132 11.308 82.168 10.876 82.192 10.42C82.216 9.956 82.228 9.508 82.228 9.076C82.236 8.636 82.24 8.248 82.24 7.912C82.24 7.736 82.232 7.58 82.216 7.444C82.2 7.3 82.18 7.164 82.156 7.036H83.26C83.252 7.084 83.244 7.156 83.236 7.252C83.228 7.34 83.22 7.44 83.212 7.552C83.204 7.664 83.2 7.78 83.2 7.9C83.2 8.236 83.196 8.632 83.188 9.088C83.18 9.536 83.16 10.008 83.128 10.504C83.104 10.992 83.068 11.456 83.02 11.896C82.98 12.336 82.916 12.704 82.828 13C82.652 13.64 82.376 14.244 82 14.812C81.632 15.38 81.196 15.876 80.692 16.3L79.792 15.688ZM97.768 7.804C97.688 8.428 97.584 9.08 97.456 9.76C97.336 10.44 97.18 11.1 96.988 11.74C96.748 12.564 96.48 13.252 96.184 13.804C95.896 14.356 95.584 14.772 95.248 15.052C94.912 15.332 94.56 15.472 94.192 15.472C93.84 15.472 93.5 15.344 93.172 15.088C92.844 14.832 92.576 14.464 92.368 13.984C92.16 13.496 92.056 12.924 92.056 12.268C92.056 11.612 92.188 10.992 92.452 10.408C92.724 9.824 93.096 9.308 93.568 8.86C94.048 8.404 94.608 8.044 95.248 7.78C95.888 7.516 96.572 7.384 97.3 7.384C98.004 7.384 98.636 7.5 99.196 7.732C99.764 7.964 100.248 8.284 100.648 8.692C101.048 9.092 101.356 9.56 101.572 10.096C101.788 10.624 101.896 11.192 101.896 11.8C101.896 12.64 101.716 13.38 101.356 14.02C101.004 14.66 100.492 15.18 99.82 15.58C99.156 15.98 98.348 16.244 97.396 16.372L96.832 15.484C97.024 15.46 97.208 15.436 97.384 15.412C97.56 15.388 97.72 15.36 97.864 15.328C98.248 15.24 98.62 15.104 98.98 14.92C99.348 14.728 99.676 14.488 99.964 14.2C100.252 13.904 100.48 13.556 100.648 13.156C100.824 12.748 100.912 12.284 100.912 11.764C100.912 11.276 100.832 10.824 100.672 10.408C100.512 9.984 100.276 9.612 99.964 9.292C99.652 8.972 99.272 8.72 98.824 8.536C98.376 8.352 97.864 8.26 97.288 8.26C96.632 8.26 96.036 8.38 95.5 8.62C94.972 8.86 94.52 9.176 94.144 9.568C93.776 9.952 93.492 10.376 93.292 10.84C93.092 11.296 92.992 11.744 92.992 12.184C92.992 12.688 93.056 13.104 93.184 13.432C93.32 13.752 93.48 13.988 93.664 14.14C93.856 14.292 94.044 14.368 94.228 14.368C94.42 14.368 94.616 14.276 94.816 14.092C95.016 13.9 95.22 13.596 95.428 13.18C95.636 12.756 95.84 12.208 96.04 11.536C96.216 10.96 96.364 10.348 96.484 9.7C96.612 9.052 96.704 8.416 96.76 7.792L97.768 7.804ZM108.124 12.796H112.912V13.48H108.124V12.796ZM107.008 6.856H114.136V7.552H107.008V6.856ZM107.296 8.32H113.836V8.98H107.296V8.32ZM106.648 9.808H114.496V10.504H106.648V9.808ZM108.136 14.392H112.948V15.076H108.136V14.392ZM107.512 11.2H112.9V11.896H108.352V16.948H107.512V11.2ZM112.696 11.2H113.548V15.952C113.548 16.176 113.516 16.352 113.452 16.48C113.396 16.608 113.284 16.704 113.116 16.768C112.948 16.84 112.724 16.88 112.444 16.888C112.164 16.904 111.812 16.912 111.388 16.912C111.372 16.8 111.336 16.668 111.28 16.516C111.232 16.372 111.18 16.244 111.124 16.132C111.428 16.14 111.708 16.144 111.964 16.144C112.228 16.152 112.4 16.152 112.48 16.144C112.624 16.136 112.696 16.068 112.696 15.94V11.2ZM110.08 5.92H110.968V10.024H110.08V5.92ZM104.824 5.92H105.64V16.948H104.824V5.92ZM103.876 8.236L104.548 8.32C104.532 8.632 104.5 8.984 104.452 9.376C104.412 9.76 104.356 10.144 104.284 10.528C104.212 10.912 104.128 11.256 104.032 11.56L103.324 11.32C103.42 11.048 103.504 10.732 103.576 10.372C103.648 10.012 103.708 9.644 103.756 9.268C103.812 8.892 103.852 8.548 103.876 8.236ZM105.748 7.912L106.348 7.672C106.484 7.944 106.616 8.244 106.744 8.572C106.872 8.892 106.964 9.16 107.02 9.376L106.384 9.688C106.328 9.456 106.24 9.172 106.12 8.836C106 8.5 105.876 8.192 105.748 7.912ZM121.672 10.552H125.608V11.296H121.672V10.552ZM121.228 6.472H125.512V7.288H122.056V16.972H121.228V6.472ZM125.08 6.472H125.92V8.788C125.92 9.012 125.888 9.188 125.824 9.316C125.768 9.444 125.648 9.544 125.464 9.616C125.28 9.68 125.032 9.72 124.72 9.736C124.416 9.744 124.028 9.748 123.556 9.748C123.54 9.628 123.504 9.496 123.448 9.352C123.4 9.2 123.344 9.068 123.28 8.956C123.536 8.964 123.768 8.972 123.976 8.98C124.192 8.98 124.376 8.98 124.528 8.98C124.68 8.98 124.784 8.976 124.84 8.968C124.944 8.96 125.008 8.944 125.032 8.92C125.064 8.896 125.08 8.852 125.08 8.788V6.472ZM122.848 11.044C123.064 11.796 123.356 12.512 123.724 13.192C124.092 13.864 124.52 14.464 125.008 14.992C125.504 15.52 126.056 15.932 126.664 16.228C126.56 16.308 126.448 16.42 126.328 16.564C126.208 16.716 126.112 16.848 126.04 16.96C125.424 16.608 124.864 16.144 124.36 15.568C123.864 14.992 123.428 14.332 123.052 13.588C122.684 12.844 122.38 12.06 122.14 11.236L122.848 11.044ZM125.332 10.552H125.488L125.644 10.516L126.208 10.72C126.048 11.584 125.808 12.412 125.488 13.204C125.176 13.996 124.78 14.716 124.3 15.364C123.828 16.004 123.272 16.544 122.632 16.984C122.56 16.88 122.464 16.768 122.344 16.648C122.232 16.536 122.124 16.444 122.02 16.372C122.628 15.972 123.156 15.476 123.604 14.884C124.052 14.284 124.42 13.628 124.708 12.916C125.004 12.204 125.212 11.484 125.332 10.756V10.552ZM115.924 7.156H120.376V7.924H115.924V7.156ZM115.792 13.708H120.532V14.488H115.792V13.708ZM115.504 9.136H120.844V9.916H115.504V9.136ZM115.672 11.62H120.688V12.4H115.672V11.62ZM117.772 5.932H118.612V9.412H117.772V5.932ZM117.772 11.956H118.612V16.936H117.772V11.956ZM119.392 9.868L120.172 10.06C120.052 10.348 119.932 10.64 119.812 10.936C119.7 11.224 119.584 11.472 119.464 11.68L118.804 11.488C118.868 11.336 118.936 11.164 119.008 10.972C119.088 10.78 119.16 10.588 119.224 10.396C119.296 10.196 119.352 10.02 119.392 9.868ZM116.332 10.06L117.016 9.88C117.16 10.136 117.284 10.416 117.388 10.72C117.492 11.024 117.556 11.28 117.58 11.488L116.86 11.704C116.836 11.488 116.772 11.228 116.668 10.924C116.572 10.612 116.46 10.324 116.332 10.06ZM132.52 6.508C132.472 6.748 132.408 7.032 132.328 7.36C132.256 7.68 132.136 8.044 131.968 8.452C131.824 8.812 131.644 9.184 131.428 9.568C131.22 9.952 130.996 10.3 130.756 10.612C130.908 10.516 131.08 10.436 131.272 10.372C131.464 10.3 131.66 10.248 131.86 10.216C132.068 10.184 132.256 10.168 132.424 10.168C132.888 10.168 133.28 10.3 133.6 10.564C133.92 10.82 134.08 11.196 134.08 11.692C134.08 11.844 134.08 12.04 134.08 12.28C134.08 12.512 134.08 12.76 134.08 13.024C134.088 13.28 134.096 13.532 134.104 13.78C134.112 14.028 134.116 14.244 134.116 14.428H133.192C133.2 14.268 133.208 14.08 133.216 13.864C133.224 13.648 133.228 13.42 133.228 13.18C133.236 12.94 133.236 12.712 133.228 12.496C133.228 12.28 133.228 12.096 133.228 11.944C133.228 11.592 133.12 11.336 132.904 11.176C132.696 11.008 132.432 10.924 132.112 10.924C131.736 10.924 131.364 11.008 130.996 11.176C130.636 11.336 130.32 11.544 130.048 11.8C129.872 11.968 129.696 12.16 129.52 12.376C129.352 12.584 129.164 12.808 128.956 13.048L128.14 12.448C128.716 11.888 129.196 11.364 129.58 10.876C129.964 10.388 130.276 9.936 130.516 9.52C130.756 9.096 130.944 8.716 131.08 8.38C131.208 8.044 131.312 7.708 131.392 7.372C131.472 7.028 131.52 6.712 131.536 6.424L132.52 6.508ZM128.416 7.804C128.736 7.844 129.084 7.876 129.46 7.9C129.836 7.924 130.164 7.936 130.444 7.936C130.98 7.936 131.556 7.924 132.172 7.9C132.788 7.868 133.408 7.824 134.032 7.768C134.664 7.712 135.264 7.632 135.832 7.528L135.82 8.416C135.404 8.488 134.96 8.548 134.488 8.596C134.016 8.636 133.536 8.672 133.048 8.704C132.56 8.728 132.088 8.748 131.632 8.764C131.184 8.772 130.768 8.776 130.384 8.776C130.216 8.776 130.02 8.776 129.796 8.776C129.58 8.768 129.352 8.76 129.112 8.752C128.872 8.736 128.64 8.72 128.416 8.704V7.804ZM137.584 10.708C137.48 10.732 137.364 10.768 137.236 10.816C137.116 10.856 136.992 10.9 136.864 10.948C136.744 10.996 136.628 11.044 136.516 11.092C136.1 11.252 135.616 11.448 135.064 11.68C134.512 11.912 133.948 12.18 133.372 12.484C132.972 12.684 132.62 12.896 132.316 13.12C132.012 13.336 131.772 13.564 131.596 13.804C131.42 14.036 131.332 14.292 131.332 14.572C131.332 14.804 131.384 14.992 131.488 15.136C131.6 15.28 131.756 15.392 131.956 15.472C132.156 15.544 132.384 15.592 132.64 15.616C132.904 15.64 133.192 15.652 133.504 15.652C133.968 15.652 134.496 15.628 135.088 15.58C135.688 15.524 136.252 15.452 136.78 15.364L136.756 16.324C136.452 16.364 136.108 16.4 135.724 16.432C135.348 16.464 134.964 16.488 134.572 16.504C134.188 16.528 133.82 16.54 133.468 16.54C132.9 16.54 132.38 16.488 131.908 16.384C131.444 16.28 131.072 16.096 130.792 15.832C130.512 15.568 130.372 15.192 130.372 14.704C130.372 14.344 130.456 14.016 130.624 13.72C130.792 13.416 131.016 13.14 131.296 12.892C131.584 12.644 131.9 12.416 132.244 12.208C132.588 11.992 132.94 11.796 133.3 11.62C133.684 11.412 134.044 11.232 134.38 11.08C134.724 10.928 135.048 10.788 135.352 10.66C135.656 10.532 135.94 10.404 136.204 10.276C136.38 10.196 136.548 10.12 136.708 10.048C136.868 9.976 137.028 9.896 137.188 9.808L137.584 10.708ZM142.096 9.136V10.372H147.904V9.136H142.096ZM142.096 11.14V12.388H147.904V11.14H142.096ZM142.096 7.144V8.38H147.904V7.144H142.096ZM141.22 6.34H148.816V13.192H141.22V6.34ZM145.768 12.604H146.68V15.604C146.68 15.772 146.72 15.884 146.8 15.94C146.88 15.988 147.048 16.012 147.304 16.012C147.36 16.012 147.468 16.012 147.628 16.012C147.788 16.012 147.964 16.012 148.156 16.012C148.356 16.012 148.54 16.012 148.708 16.012C148.884 16.012 149.012 16.012 149.092 16.012C149.26 16.012 149.384 15.972 149.464 15.892C149.544 15.812 149.6 15.652 149.632 15.412C149.672 15.172 149.7 14.804 149.716 14.308C149.78 14.356 149.86 14.408 149.956 14.464C150.052 14.512 150.152 14.556 150.256 14.596C150.368 14.628 150.464 14.656 150.544 14.68C150.512 15.256 150.452 15.704 150.364 16.024C150.276 16.344 150.136 16.564 149.944 16.684C149.76 16.804 149.5 16.864 149.164 16.864C149.116 16.864 149.024 16.864 148.888 16.864C148.76 16.864 148.608 16.864 148.432 16.864C148.264 16.864 148.092 16.864 147.916 16.864C147.748 16.864 147.6 16.864 147.472 16.864C147.352 16.864 147.268 16.864 147.22 16.864C146.836 16.864 146.536 16.828 146.32 16.756C146.112 16.684 145.968 16.552 145.888 16.36C145.808 16.176 145.768 15.924 145.768 15.604V12.604ZM142.888 12.868H143.848C143.784 13.396 143.68 13.876 143.536 14.308C143.4 14.74 143.192 15.128 142.912 15.472C142.632 15.808 142.256 16.1 141.784 16.348C141.312 16.596 140.712 16.804 139.984 16.972C139.96 16.892 139.92 16.8 139.864 16.696C139.808 16.6 139.744 16.504 139.672 16.408C139.6 16.32 139.532 16.244 139.468 16.18C140.132 16.044 140.672 15.876 141.088 15.676C141.512 15.476 141.844 15.244 142.084 14.98C142.332 14.708 142.512 14.396 142.624 14.044C142.744 13.692 142.832 13.3 142.888 12.868ZM153.856 7.156C153.992 7.172 154.136 7.184 154.288 7.192C154.448 7.2 154.588 7.204 154.708 7.204C154.828 7.204 155.024 7.2 155.296 7.192C155.576 7.184 155.888 7.176 156.232 7.168C156.584 7.152 156.932 7.14 157.276 7.132C157.628 7.116 157.94 7.1 158.212 7.084C158.492 7.068 158.696 7.056 158.824 7.048C159 7.032 159.136 7.016 159.232 7C159.328 6.984 159.408 6.968 159.472 6.952L160.024 7.648C159.92 7.72 159.808 7.796 159.688 7.876C159.576 7.956 159.464 8.044 159.352 8.14C159.2 8.252 158.996 8.416 158.74 8.632C158.484 8.84 158.2 9.076 157.888 9.34C157.584 9.596 157.284 9.848 156.988 10.096C156.692 10.344 156.424 10.568 156.184 10.768C156.464 10.672 156.744 10.608 157.024 10.576C157.312 10.536 157.588 10.516 157.852 10.516C158.516 10.516 159.104 10.64 159.616 10.888C160.136 11.128 160.54 11.46 160.828 11.884C161.124 12.308 161.272 12.792 161.272 13.336C161.272 13.976 161.104 14.536 160.768 15.016C160.432 15.496 159.956 15.864 159.34 16.12C158.724 16.384 157.992 16.516 157.144 16.516C156.6 16.516 156.132 16.444 155.74 16.3C155.348 16.156 155.044 15.956 154.828 15.7C154.62 15.444 154.516 15.148 154.516 14.812C154.516 14.54 154.592 14.284 154.744 14.044C154.896 13.804 155.112 13.612 155.392 13.468C155.672 13.324 155.996 13.252 156.364 13.252C156.9 13.252 157.344 13.364 157.696 13.588C158.048 13.804 158.32 14.092 158.512 14.452C158.704 14.804 158.812 15.184 158.836 15.592L157.972 15.736C157.94 15.224 157.78 14.804 157.492 14.476C157.212 14.14 156.832 13.972 156.352 13.972C156.08 13.972 155.852 14.048 155.668 14.2C155.484 14.352 155.392 14.532 155.392 14.74C155.392 15.028 155.54 15.256 155.836 15.424C156.132 15.592 156.516 15.676 156.988 15.676C157.668 15.676 158.256 15.584 158.752 15.4C159.256 15.216 159.64 14.948 159.904 14.596C160.176 14.244 160.312 13.82 160.312 13.324C160.312 12.932 160.196 12.58 159.964 12.268C159.732 11.956 159.412 11.712 159.004 11.536C158.604 11.352 158.144 11.26 157.624 11.26C157.12 11.26 156.668 11.316 156.268 11.428C155.868 11.532 155.492 11.684 155.14 11.884C154.796 12.084 154.452 12.336 154.108 12.64C153.772 12.936 153.412 13.276 153.028 13.66L152.344 12.952C152.592 12.752 152.864 12.528 153.16 12.28C153.464 12.024 153.768 11.772 154.072 11.524C154.376 11.268 154.656 11.032 154.912 10.816C155.176 10.592 155.396 10.408 155.572 10.264C155.74 10.128 155.948 9.956 156.196 9.748C156.452 9.532 156.716 9.308 156.988 9.076C157.26 8.844 157.516 8.624 157.756 8.416C158.004 8.208 158.204 8.04 158.356 7.912C158.228 7.912 158.04 7.92 157.792 7.936C157.544 7.944 157.268 7.956 156.964 7.972C156.66 7.98 156.356 7.992 156.052 8.008C155.756 8.024 155.484 8.04 155.236 8.056C154.996 8.064 154.812 8.072 154.684 8.08C154.556 8.088 154.424 8.096 154.288 8.104C154.152 8.112 154.02 8.128 153.892 8.152L153.856 7.156Z" fill="#EAFDFF"/>
</svg>
