<svg width="86" height="93" viewBox="0 0 86 93" fill="none" xmlns="http://www.w3.org/2000/svg">
<path d="M9.88281 91.5V91.1953L11.3828 90.2109L11.5469 89.9766L13.5625 88.6406L13.7266 88.4062C14.3203 87.8594 14.9453 87.4141 15.6016 87.0703C16.2578 86.7109 17.0078 86.6328 17.8516 86.8359V87.2109L17.0312 87.8906L15.6016 88.7812L15.4609 89.0156L13.3516 90.5859C12.4453 91.4453 11.2891 91.75 9.88281 91.5ZM10.0469 87.7266V87.4219L10.4922 86.9766H10.6328L10.7031 86.7422L13.9375 84.1875H16.0469V84.4922L14.9219 85.2422L14.8516 85.4766L14.0312 86.1562L13.2812 86.6016L13.1172 86.8359C12.3203 87.7266 11.2969 88.0234 10.0469 87.7266ZM4.91406 85.1719L4.60938 85.1016L4.53906 84.1875C4.83594 83.4844 5.21094 82.7969 5.66406 82.125C6.11719 81.4531 6.54688 80.7891 6.95312 80.1328H7.09375V79.8984H6.64844C5.78906 80.1016 4.92188 80.2812 4.04688 80.4375C3.17188 80.5781 2.25781 80.6016 1.30469 80.5078V80.1328L7.84375 78.9375L8.75781 77.5781H10.8672V77.9531L10.5625 78.3984H10.4219V78.7031H11.0781C12.3906 78.5469 13.7188 78.4375 15.0625 78.375C16.4219 78.2969 17.7812 78.2266 19.1406 78.1641H23.5703V78.5391C21.2109 78.6016 18.8672 78.6953 16.5391 78.8203C14.2109 78.9453 11.9141 79.2031 9.64844 79.5938C9.10156 80.4062 8.5625 81.2109 8.03125 82.0078C7.51562 82.8047 7.07812 83.6328 6.71875 84.4922H8.21875V84.8672C7.21875 85.1641 6.11719 85.2656 4.91406 85.1719ZM10.4922 85.0312L9.27344 84.7266L9.20312 84.0469C9.90625 83.4375 10.6641 82.8828 11.4766 82.3828C12.3672 81.9297 13.4141 81.7812 14.6172 81.9375V82.3125C13.5234 82.7656 12.5 83.3672 11.5469 84.1172L11.4766 84.3516L12.5078 84.6328V84.9375L10.4922 85.0312ZM20.125 84.4219L17.3359 82.5469V82.3828L16.6562 82.0078L15.2266 80.4375V80.0625H17.3359L17.4062 80.2734L17.5703 80.3672L18.5312 81.3984V81.5625L19.5156 82.1719L22.1406 84.0469V84.4219H20.125ZM7.1875 76.7344C6.78125 76.5938 6.64844 76.2734 6.78906 75.7734L7.32812 74.9297H7.46875L7.77344 74.4141L8.00781 74.3438L8.21875 73.875L8.6875 73.4297H8.82812L8.99219 73.125L9.20312 73.0547L9.27344 72.8438L9.95312 72.2344H10.1172L10.1875 72C10.9375 71.6094 11.7891 71.4844 12.7422 71.625V72L12.0625 72.6094L11.6172 72.8438L11.4766 73.125L11.2422 73.2188L11.1719 73.4297L10.3281 74.2734H10.1875L9.88281 74.7891L9.64844 74.8594L8.89844 76.2188H9.0625C9.96875 75.9688 10.8672 75.7578 11.7578 75.5859C12.6641 75.3984 13.6172 75.3594 14.6172 75.4688V75.8438L10.1875 76.7344H7.1875ZM17.7109 76.6641C17.3516 75.9609 16.9453 75.2891 16.4922 74.6484C16.0547 73.9922 15.6797 73.2891 15.3672 72.5391H17.4062V72.6797L17.6406 72.8438L17.9453 73.4297L19.2812 75.3984C19.5312 75.7891 19.6875 76.2109 19.75 76.6641H17.7109ZM32.7109 90.2109V89.7656C33.0703 88.6562 33.3594 87.5156 33.5781 86.3438C33.8125 85.1562 33.8984 83.9141 33.8359 82.6172C33.7422 81.9141 33.4453 81.3125 32.9453 80.8125C32.5391 80.4062 32.0391 80.2266 31.4453 80.2734L30.7656 80.5078L29.1719 87.3516H27.1562V86.9062L28.2812 81.5625H28.1406C27.375 82.1094 26.4453 82.2812 25.3516 82.0781V81.7031C26.3984 80.9531 27.5234 80.4297 28.7266 80.1328C28.8828 79.3359 29.0703 78.5625 29.2891 77.8125C29.5234 77.0469 29.7656 76.2891 30.0156 75.5391H32.125V75.9141L30.9766 79.7578C31.7422 79.7578 32.5 79.7734 33.25 79.8047C34 79.8203 34.6484 80.0781 35.1953 80.5781C35.6484 81.1406 35.8984 81.7969 35.9453 82.5469C36.0078 83.2969 36.0078 84.0469 35.9453 84.7969C35.8516 85.75 35.7031 86.6797 35.5 87.5859C35.2969 88.4922 35.0234 89.3672 34.6797 90.2109H32.7109ZM37.4688 88.0312V87.7969L37.2344 85.8516V82.5469L37.4688 79.6875H39.4844L39.5547 80.2031L39.4844 80.6719H39.6484C40.4453 80.2188 41.3203 79.9453 42.2734 79.8516C43.2266 79.7422 44.2031 79.7109 45.2031 79.7578C45.7031 79.8516 46.1562 80.0781 46.5625 80.4375C47.0625 81.1875 47.2891 82.0625 47.2422 83.0625C47.1953 83.7656 47.0781 84.4609 46.8906 85.1484C46.7188 85.8203 46.5312 86.4844 46.3281 87.1406H46.4922V87.5156C44.9766 87.5625 43.4688 87.6641 41.9688 87.8203C40.4688 87.9609 38.9688 88.0312 37.4688 88.0312ZM44.1484 87.1406V86.9062C44.3984 86.2031 44.6094 85.4922 44.7812 84.7734C44.9688 84.0391 45.0859 83.2734 45.1328 82.4766C45.0859 81.7734 44.8125 81.1719 44.3125 80.6719L43.5625 80.2734C42.7969 80.4297 42.1016 80.7109 41.4766 81.1172C40.8516 81.5078 40.1641 81.7578 39.4141 81.8672L39.2734 84.6562L39.4844 87.4219H40.0938L44.1484 87.1406ZM61.2344 91.7109V91.1953C61.6875 90.3984 62.0469 89.5625 62.3125 88.6875C62.5938 87.7969 62.7109 86.8281 62.6641 85.7812L62.3594 84.7266H62.2188C62.0625 85.5703 61.7109 86.3203 61.1641 86.9766L59.9688 87.8906L58.1641 88.4062H54.625C54.125 88.3125 53.6719 88.0859 53.2656 87.7266C52.9688 87.3359 52.8672 86.8359 52.9609 86.2266C53.1641 85.4766 53.5625 84.8281 54.1562 84.2812L54.3906 84.1875L54.4609 83.9766C55.3203 83.2734 56.2344 82.75 57.2031 82.4062C58.1875 82.0469 59.2578 81.9375 60.4141 82.0781V80.4375L60.1797 78.5625L59.8047 78.4688C58.0078 78.7812 56.2188 79.1484 54.4375 79.5703C52.6562 79.9922 50.8125 80.2266 48.9062 80.2734V79.8984C50.7656 79.4609 52.6172 79.0703 54.4609 78.7266C56.3203 78.3672 58.2031 78.0625 60.1094 77.8125V77.3438L59.5938 73.5234H61.6797L62.2188 77.5781H62.7344C63.5938 77.4688 64.4375 77.3672 65.2656 77.2734C66.0938 77.1797 66.9609 77.1562 67.8672 77.2031V77.5781L62.2891 78.1875V78.3984C62.3984 79.0547 62.4609 79.7109 62.4766 80.3672C62.5078 81.0078 62.5234 81.6797 62.5234 82.3828C62.9766 82.4453 63.3516 82.6719 63.6484 83.0625L63.7188 83.2969L63.9531 83.4375C64.3438 84 64.5859 84.6328 64.6797 85.3359C64.7891 86.0234 64.8203 86.75 64.7734 87.5156C64.6797 88.2656 64.4922 88.9766 64.2109 89.6484C63.9297 90.3203 63.6406 91.0078 63.3438 91.7109H61.2344ZM58.1641 87.3516C58.7578 86.9609 59.2578 86.4609 59.6641 85.8516C60.1172 84.8516 60.3672 83.7734 60.4141 82.6172H59.6641C58.5078 83.0234 57.4297 83.625 56.4297 84.4219L55.375 85.6172L55.0703 86.8359L55.4453 87.4219L56.5703 87.9609L58.1641 87.3516ZM74.1484 90.2812C73.2891 90.1875 72.4531 90.0312 71.6406 89.8125C70.8438 89.5781 70.125 89.1875 69.4844 88.6406C69.1719 88.2344 69.0703 87.7344 69.1797 87.1406L69.6953 86.1562C70.1016 85.8594 70.5547 85.6328 71.0547 85.4766H74.4531C75.5 85.7266 76.4766 86.1797 77.3828 86.8359L78.5078 87.9609L78.7422 88.1953C79.0391 88.4922 79.1875 88.8359 79.1875 89.2266H79.3984L81.4375 87.9609L81.8125 87.6562C82.3125 87.0625 82.5391 86.3359 82.4922 85.4766L81.6719 84.1875L81.5078 84.1172L80.5469 83.3672C79.6875 82.9141 78.7656 82.5781 77.7812 82.3594C76.8125 82.125 75.8984 81.8125 75.0391 81.4219L74.8984 80.7422L75.2734 79.9922L76.6328 78.7031L79.9375 76.1484L80.6875 75.1641V74.9531C79.9844 74.5938 79.2031 74.4141 78.3438 74.4141L74.5234 74.8594H70.9844V74.4141C71.8906 74.4141 72.7812 74.375 73.6562 74.2969C74.5312 74.2188 75.3984 74.1328 76.2578 74.0391H81.1328C81.6953 74.0859 82.2266 74.2344 82.7266 74.4844C82.8672 74.7344 82.9141 75.0391 82.8672 75.3984L82.4219 75.9844L82.1875 76.2188L81.2031 77.0391L80.5469 77.6484L78.2031 79.3828L77.5234 80.0625L77.0781 80.9531L77.1484 81.1875C78.3047 81.5938 79.4688 81.9453 80.6406 82.2422C81.8281 82.5391 82.8984 83.0938 83.8516 83.9062C84.5078 84.5938 84.7578 85.4688 84.6016 86.5312L84.0625 87.7266L83.1016 88.6406L82.7969 88.8516C82.1875 89.2578 81.5312 89.5781 80.8281 89.8125C80.125 90.0312 79.3984 90.1875 78.6484 90.2812H74.1484ZM78.9531 89.3203L77.0781 89.2266L76.2578 88.1953L75.4141 87.2109C74.5703 86.6016 73.6484 86.1953 72.6484 85.9922L71.8047 86.5312L71.4297 86.9766L71.2891 87.7266L71.875 88.6406C72.5781 89.0312 73.3203 89.3281 74.1016 89.5312C74.8828 89.7344 75.6953 89.8594 76.5391 89.9062C77.3984 89.8125 78.2031 89.6172 78.9531 89.3203Z" fill="#144895"/>
<path d="M52.6458 29.0833L6 29.0833" stroke="#144895" stroke-width="4" stroke-linecap="round" stroke-linejoin="round"/>
<path d="M40.7915 42.0624L52.7498 29.0833L40.7915 16.1041" stroke="#144895" stroke-width="4" stroke-linecap="round" stroke-linejoin="round"/>
<path d="M22.8751 19.9166V8.89579C22.8696 7.99569 23.0415 7.10331 23.3809 6.26962C23.7203 5.43593 24.2206 4.67726 24.8532 4.03692C25.4858 3.39658 26.2383 2.88711 27.0678 2.53761C27.8973 2.1881 28.7875 2.00541 29.6876 1.99996H63.7501C64.652 2.00268 65.5445 2.18336 66.3764 2.53164C67.2083 2.87993 67.9633 3.38896 68.5981 4.02957C69.2329 4.67019 69.735 5.42979 70.0757 6.26483C70.4164 7.09987 70.5889 7.99394 70.5835 8.89579V49.2708C70.5889 50.1726 70.4164 51.0667 70.0757 51.9018C69.735 52.7368 69.2329 53.4964 68.5981 54.137C67.9633 54.7776 67.2083 55.2867 66.3764 55.6349C65.5445 55.9832 64.652 56.1639 63.7501 56.1666H29.6876C28.7875 56.1612 27.8973 55.9785 27.0678 55.629C26.2383 55.2795 25.4858 54.77 24.8532 54.1297C24.2206 53.4893 23.7203 52.7306 23.3809 51.897C23.0415 51.0633 22.8696 50.1709 22.8751 49.2708V38.375" stroke="#1CE8FF" stroke-width="4" stroke-linecap="round" stroke-linejoin="round"/>
</svg>
