<svg width="140" height="160" viewBox="0 0 140 160" fill="none" xmlns="http://www.w3.org/2000/svg">
<rect width="140" height="160" rx="20" fill="#EAFDFF"/>
<path d="M36.8828 131.5V131.195L38.3828 130.211L38.5469 129.977L40.5625 128.641L40.7266 128.406C41.3203 127.859 41.9453 127.414 42.6016 127.07C43.2578 126.711 44.0078 126.633 44.8516 126.836V127.211L44.0312 127.891L42.6016 128.781L42.4609 129.016L40.3516 130.586C39.4453 131.445 38.2891 131.75 36.8828 131.5ZM37.0469 127.727V127.422L37.4922 126.977H37.6328L37.7031 126.742L40.9375 124.188H43.0469V124.492L41.9219 125.242L41.8516 125.477L41.0312 126.156L40.2812 126.602L40.1172 126.836C39.3203 127.727 38.2969 128.023 37.0469 127.727ZM31.9141 125.172L31.6094 125.102L31.5391 124.188C31.8359 123.484 32.2109 122.797 32.6641 122.125C33.1172 121.453 33.5469 120.789 33.9531 120.133H34.0938V119.898H33.6484C32.7891 120.102 31.9219 120.281 31.0469 120.438C30.1719 120.578 29.2578 120.602 28.3047 120.508V120.133L34.8438 118.938L35.7578 117.578H37.8672V117.953L37.5625 118.398H37.4219V118.703H38.0781C39.3906 118.547 40.7188 118.438 42.0625 118.375C43.4219 118.297 44.7812 118.227 46.1406 118.164H50.5703V118.539C48.2109 118.602 45.8672 118.695 43.5391 118.82C41.2109 118.945 38.9141 119.203 36.6484 119.594C36.1016 120.406 35.5625 121.211 35.0312 122.008C34.5156 122.805 34.0781 123.633 33.7188 124.492H35.2188V124.867C34.2188 125.164 33.1172 125.266 31.9141 125.172ZM37.4922 125.031L36.2734 124.727L36.2031 124.047C36.9062 123.438 37.6641 122.883 38.4766 122.383C39.3672 121.93 40.4141 121.781 41.6172 121.938V122.312C40.5234 122.766 39.5 123.367 38.5469 124.117L38.4766 124.352L39.5078 124.633V124.938L37.4922 125.031ZM47.125 124.422L44.3359 122.547V122.383L43.6562 122.008L42.2266 120.438V120.062H44.3359L44.4062 120.273L44.5703 120.367L45.5312 121.398V121.562L46.5156 122.172L49.1406 124.047V124.422H47.125ZM34.1875 116.734C33.7812 116.594 33.6484 116.273 33.7891 115.773L34.3281 114.93H34.4688L34.7734 114.414L35.0078 114.344L35.2188 113.875L35.6875 113.43H35.8281L35.9922 113.125L36.2031 113.055L36.2734 112.844L36.9531 112.234H37.1172L37.1875 112C37.9375 111.609 38.7891 111.484 39.7422 111.625V112L39.0625 112.609L38.6172 112.844L38.4766 113.125L38.2422 113.219L38.1719 113.43L37.3281 114.273H37.1875L36.8828 114.789L36.6484 114.859L35.8984 116.219H36.0625C36.9688 115.969 37.8672 115.758 38.7578 115.586C39.6641 115.398 40.6172 115.359 41.6172 115.469V115.844L37.1875 116.734H34.1875ZM44.7109 116.664C44.3516 115.961 43.9453 115.289 43.4922 114.648C43.0547 113.992 42.6797 113.289 42.3672 112.539H44.4062V112.68L44.6406 112.844L44.9453 113.43L46.2812 115.398C46.5312 115.789 46.6875 116.211 46.75 116.664H44.7109ZM59.7109 130.211V129.766C60.0703 128.656 60.3594 127.516 60.5781 126.344C60.8125 125.156 60.8984 123.914 60.8359 122.617C60.7422 121.914 60.4453 121.312 59.9453 120.812C59.5391 120.406 59.0391 120.227 58.4453 120.273L57.7656 120.508L56.1719 127.352H54.1562V126.906L55.2812 121.562H55.1406C54.375 122.109 53.4453 122.281 52.3516 122.078V121.703C53.3984 120.953 54.5234 120.43 55.7266 120.133C55.8828 119.336 56.0703 118.562 56.2891 117.812C56.5234 117.047 56.7656 116.289 57.0156 115.539H59.125V115.914L57.9766 119.758C58.7422 119.758 59.5 119.773 60.25 119.805C61 119.82 61.6484 120.078 62.1953 120.578C62.6484 121.141 62.8984 121.797 62.9453 122.547C63.0078 123.297 63.0078 124.047 62.9453 124.797C62.8516 125.75 62.7031 126.68 62.5 127.586C62.2969 128.492 62.0234 129.367 61.6797 130.211H59.7109ZM64.4688 128.031V127.797L64.2344 125.852V122.547L64.4688 119.688H66.4844L66.5547 120.203L66.4844 120.672H66.6484C67.4453 120.219 68.3203 119.945 69.2734 119.852C70.2266 119.742 71.2031 119.711 72.2031 119.758C72.7031 119.852 73.1562 120.078 73.5625 120.438C74.0625 121.188 74.2891 122.062 74.2422 123.062C74.1953 123.766 74.0781 124.461 73.8906 125.148C73.7188 125.82 73.5312 126.484 73.3281 127.141H73.4922V127.516C71.9766 127.562 70.4688 127.664 68.9688 127.82C67.4688 127.961 65.9688 128.031 64.4688 128.031ZM71.1484 127.141V126.906C71.3984 126.203 71.6094 125.492 71.7812 124.773C71.9688 124.039 72.0859 123.273 72.1328 122.477C72.0859 121.773 71.8125 121.172 71.3125 120.672L70.5625 120.273C69.7969 120.43 69.1016 120.711 68.4766 121.117C67.8516 121.508 67.1641 121.758 66.4141 121.867L66.2734 124.656L66.4844 127.422H67.0938L71.1484 127.141ZM88.2344 131.711V131.195C88.6875 130.398 89.0469 129.562 89.3125 128.688C89.5938 127.797 89.7109 126.828 89.6641 125.781L89.3594 124.727H89.2188C89.0625 125.57 88.7109 126.32 88.1641 126.977L86.9688 127.891L85.1641 128.406H81.625C81.125 128.312 80.6719 128.086 80.2656 127.727C79.9688 127.336 79.8672 126.836 79.9609 126.227C80.1641 125.477 80.5625 124.828 81.1562 124.281L81.3906 124.188L81.4609 123.977C82.3203 123.273 83.2344 122.75 84.2031 122.406C85.1875 122.047 86.2578 121.938 87.4141 122.078V120.438L87.1797 118.562L86.8047 118.469C85.0078 118.781 83.2188 119.148 81.4375 119.57C79.6562 119.992 77.8125 120.227 75.9062 120.273V119.898C77.7656 119.461 79.6172 119.07 81.4609 118.727C83.3203 118.367 85.2031 118.062 87.1094 117.812V117.344L86.5938 113.523H88.6797L89.2188 117.578H89.7344C90.5938 117.469 91.4375 117.367 92.2656 117.273C93.0938 117.18 93.9609 117.156 94.8672 117.203V117.578L89.2891 118.188V118.398C89.3984 119.055 89.4609 119.711 89.4766 120.367C89.5078 121.008 89.5234 121.68 89.5234 122.383C89.9766 122.445 90.3516 122.672 90.6484 123.062L90.7188 123.297L90.9531 123.438C91.3438 124 91.5859 124.633 91.6797 125.336C91.7891 126.023 91.8203 126.75 91.7734 127.516C91.6797 128.266 91.4922 128.977 91.2109 129.648C90.9297 130.32 90.6406 131.008 90.3438 131.711H88.2344ZM85.1641 127.352C85.7578 126.961 86.2578 126.461 86.6641 125.852C87.1172 124.852 87.3672 123.773 87.4141 122.617H86.6641C85.5078 123.023 84.4297 123.625 83.4297 124.422L82.375 125.617L82.0703 126.836L82.4453 127.422L83.5703 127.961L85.1641 127.352ZM101.148 130.281C100.289 130.188 99.4531 130.031 98.6406 129.812C97.8438 129.578 97.125 129.188 96.4844 128.641C96.1719 128.234 96.0703 127.734 96.1797 127.141L96.6953 126.156C97.1016 125.859 97.5547 125.633 98.0547 125.477H101.453C102.5 125.727 103.477 126.18 104.383 126.836L105.508 127.961L105.742 128.195C106.039 128.492 106.188 128.836 106.188 129.227H106.398L108.438 127.961L108.812 127.656C109.312 127.062 109.539 126.336 109.492 125.477L108.672 124.188L108.508 124.117L107.547 123.367C106.688 122.914 105.766 122.578 104.781 122.359C103.812 122.125 102.898 121.812 102.039 121.422L101.898 120.742L102.273 119.992L103.633 118.703L106.938 116.148L107.688 115.164V114.953C106.984 114.594 106.203 114.414 105.344 114.414L101.523 114.859H97.9844V114.414C98.8906 114.414 99.7812 114.375 100.656 114.297C101.531 114.219 102.398 114.133 103.258 114.039H108.133C108.695 114.086 109.227 114.234 109.727 114.484C109.867 114.734 109.914 115.039 109.867 115.398L109.422 115.984L109.188 116.219L108.203 117.039L107.547 117.648L105.203 119.383L104.523 120.062L104.078 120.953L104.148 121.188C105.305 121.594 106.469 121.945 107.641 122.242C108.828 122.539 109.898 123.094 110.852 123.906C111.508 124.594 111.758 125.469 111.602 126.531L111.062 127.727L110.102 128.641L109.797 128.852C109.188 129.258 108.531 129.578 107.828 129.812C107.125 130.031 106.398 130.188 105.648 130.281H101.148ZM105.953 129.32L104.078 129.227L103.258 128.195L102.414 127.211C101.57 126.602 100.648 126.195 99.6484 125.992L98.8047 126.531L98.4297 126.977L98.2891 127.727L98.875 128.641C99.5781 129.031 100.32 129.328 101.102 129.531C101.883 129.734 102.695 129.859 103.539 129.906C104.398 129.812 105.203 129.617 105.953 129.32Z" fill="#144895"/>
<path d="M79.6458 69.0833H33" stroke="#144895" stroke-width="4" stroke-linecap="round" stroke-linejoin="round"/>
<path d="M67.7917 82.0625L79.7501 69.0833L67.7917 56.1041" stroke="#144895" stroke-width="4" stroke-linecap="round" stroke-linejoin="round"/>
<path d="M49.8749 59.9166V48.8958C49.8694 47.9957 50.0413 47.1033 50.3806 46.2696C50.72 45.4359 51.2203 44.6773 51.8529 44.0369C52.4855 43.3966 53.2381 42.8871 54.0676 42.5376C54.8971 42.1881 55.7873 42.0054 56.6874 42H90.7499C91.6517 42.0027 92.5442 42.1834 93.3761 42.5316C94.208 42.8799 94.963 43.389 95.5978 44.0296C96.2326 44.6702 96.7348 45.4298 97.0755 46.2648C97.4161 47.0999 97.5887 47.9939 97.5832 48.8958V89.2708C97.5887 90.1726 97.4161 91.0667 97.0755 91.9018C96.7348 92.7368 96.2326 93.4964 95.5978 94.137C94.963 94.7776 94.208 95.2867 93.3761 95.6349C92.5442 95.9832 91.6517 96.1639 90.7499 96.1666H56.6874C55.7873 96.1612 54.8971 95.9785 54.0676 95.629C53.2381 95.2795 52.4855 94.77 51.8529 94.1297C51.2203 93.4893 50.72 92.7306 50.3806 91.897C50.0413 91.0633 49.8694 90.1709 49.8749 89.2708V78.375" stroke="#1CE8FF" stroke-width="4" stroke-linecap="round" stroke-linejoin="round"/>
</svg>
