<svg width="212" height="64" viewBox="0 0 212 64" fill="none" xmlns="http://www.w3.org/2000/svg">
<path d="M11.2109 54.75C9.6276 54.5 8.16927 53.9792 6.83594 53.1875L6.64844 52.5625L5.02344 51.375C3.8151 49.625 3.0651 47.6875 2.77344 45.5625C2.52344 43.3958 2.46094 41.1875 2.58594 38.9375C3.1276 35.7292 4.1276 32.6458 5.58594 29.6875C7.08594 26.7292 9.10677 24.0625 11.6484 21.6875L17.2734 17.625C18.9818 16.7083 20.8984 16.1458 23.0234 15.9375C25.1901 15.7292 27.3359 15.7083 29.4609 15.875C31.2109 15.875 32.6901 16.4583 33.8984 17.625C34.9818 19.25 35.3776 21.125 35.0859 23.25L33.8984 27.0625H28.4609V26.0625C29.2943 24.4792 29.6276 22.6875 29.4609 20.6875L27.8984 18.0625C27.3568 17.5208 26.6901 17.3125 25.8984 17.4375C22.9401 18.3958 20.2526 19.875 17.8359 21.875L16.6484 23.25C15.4401 24.2083 14.4401 25.3542 13.6484 26.6875H13.2109C11.7526 29.1042 10.5443 31.6875 9.58594 34.4375C8.66927 37.1458 8.14844 40.0417 8.02344 43.125C8.14844 46.2083 9.21094 48.8958 11.2109 51.1875L12.0234 51.75V52.1875L15.6484 53.375C18.8568 52.5833 21.8568 51.2083 24.6484 49.25C27.4818 47.2917 30.7734 46.4583 34.5234 46.75V47.75C31.0234 50.0417 27.3984 51.9167 23.6484 53.375C19.8984 54.8333 15.7526 55.2917 11.2109 54.75ZM143.484 55.0391C141.479 53.8672 139.513 52.6562 137.586 51.4062C135.659 50.1562 133.693 48.9453 131.688 47.7734L131.336 54.8047H127.938V53.2812C128.016 49.9479 128.237 46.6146 128.602 43.2812C128.992 39.9219 129.487 36.6146 130.086 33.3594H133.602V33.9844C133.185 35.9896 132.846 37.9948 132.586 40C132.326 42.0052 132.117 44.0495 131.961 46.1328H132.195C133.628 45.2214 135.047 44.3229 136.453 43.4375C137.885 42.5521 139.266 41.6146 140.594 40.625L140.75 40.2344L142.117 38.8672H142.352C143.706 37.3568 144.383 35.5599 144.383 33.4766L143.25 31.4844C141.74 30.2083 139.943 29.6224 137.859 29.7266C136.01 30.1432 134.253 30.7031 132.586 31.4062C130.919 32.1094 129.331 33.0469 127.82 34.2188L127.703 34.7266H124.07V33.9844C124.982 33.151 126.023 32.3958 127.195 31.7188C128.523 31.0417 129.852 30.4818 131.18 30.0391C132.534 29.5703 133.966 29.2057 135.477 28.9453H142.234C143.823 29.1276 145.242 29.7656 146.492 30.8594L147 31.3281C147.755 32.5 148.055 33.8411 147.898 35.3516C147.56 36.5234 147.052 37.6172 146.375 38.6328L145.516 39.6094H145.242L145.008 40.1172L144.617 40.2344L144.5 40.625L143.875 41.25L142.742 41.875L142.469 42.2656C141.401 43.099 140.281 43.8672 139.109 44.5703C137.938 45.2734 136.766 46.0026 135.594 46.7578L135.477 47.1484C137.299 48.3984 139.174 49.6354 141.102 50.8594C143.029 52.0573 144.956 53.2422 146.883 54.4141V55.0391H143.484Z" fill="#1CE8FF"/>
<path d="M38.8359 55.5078V53.2422C39.1745 50.8203 39.526 48.3984 39.8906 45.9766C40.2812 43.5547 40.8151 41.1719 41.4922 38.8281H44.8516V39.6094L43.875 44.1016H44.1094L45.9844 42.1094L47.3516 41.0938C48.1068 40.3385 49.0443 39.9479 50.1641 39.9219C51.3099 39.8698 52.4297 39.8438 53.5234 39.8438L54.0312 40.2344L54.1484 42.4609L54.0312 45.625H50.5156V42.4609L50.6328 41.9531H50.3984L49.2656 42.7344C48.1979 44.0625 46.8958 45.651 45.3594 47.5C44.6823 48.75 44.0964 50.026 43.6016 51.3281C43.1068 52.6042 42.7292 53.9583 42.4688 55.3906L38.8359 55.5078ZM56.1797 60.1562V59.5312C57.4297 58.8281 59.0182 57.2786 60.9453 54.8828L61.8047 53.6328L60.9453 53.3984C59.7734 51.888 58.9792 50.4818 58.5625 49.1797C58.1458 47.8776 57.8594 46.263 57.7031 44.3359L57.3906 40.3516L57.5078 39.8438H61.0234V40.3516L61.0625 42.4609C61.1406 44.2318 61.3229 45.7422 61.6094 46.9922C61.9219 48.2422 62.4948 49.6224 63.3281 51.1328L63.6797 51.25C64.9297 49.2448 65.9844 47.4089 66.8438 45.7422C67.7031 44.0755 68.4583 42.1224 69.1094 39.8828H72.625V40.5078C71.7135 43.2422 70.6849 45.6771 69.5391 47.8125C68.3932 49.9479 66.9479 52.2266 65.2031 54.6484C64.4479 55.7161 63.6927 56.6667 62.9375 57.5C62.2083 58.3854 61.2318 59.2839 60.0078 60.1953L56.1797 60.1562ZM78.4844 55.3516L76.2188 54.9609V54.3359H79.8516L82.4688 54.6094C83.7188 54.4271 84.8125 53.9193 85.75 53.0859C86.1667 52.6693 86.375 52.1745 86.375 51.6016L86.1016 50.8594L85.75 50.5859C84.3177 49.4922 82.7031 48.8021 80.9062 48.5156C79.1094 48.2292 77.3776 47.7474 75.7109 47.0703C75.2943 46.5755 75.0859 45.9896 75.0859 45.3125C75.2422 44.401 75.737 43.5677 76.5703 42.8125L77.0781 42.3047C78.6667 41.237 80.3854 40.4818 82.2344 40.0391H87.3906L88.6406 40.7031C89.0573 41.1979 89.1745 41.7708 88.9922 42.4219H85.6328L85.2422 41.3281L84.5 40.9375C82.8073 41.4323 81.2578 42.3047 79.8516 43.5547L78.8359 44.8047L78.6016 45.8203L79.7344 46.8359C81.401 47.3307 83.0938 47.7344 84.8125 48.0469C86.5312 48.3333 88.0547 49.0495 89.3828 50.1953C89.7995 50.8724 89.9688 51.6276 89.8906 52.4609L89.2656 53.7109L88.6406 53.9844L88.25 54.4922C87.2344 54.987 86.1016 55.2734 84.8516 55.3516H78.4844ZM96.0625 55.4688V54.9609L95.9453 51.3281L96.6875 41.9531H92.3125V41.3281L96.6875 40.9375C96.9479 39.6875 97.1042 38.2292 97.1562 36.5625C97.2344 34.8698 97.3646 33.3984 97.5469 32.1484H100.945V33.2812L100.438 40.5469H104.344V41.1719L100.32 41.5625C100.086 43.8281 99.8646 46.1328 99.6562 48.4766C99.4479 50.7943 99.3828 53.125 99.4609 55.4688H96.0625ZM119.5 56.25L119.266 56.0547C118.094 54.5703 117.547 52.8906 117.625 51.0156H117.391L117.117 51.3672H116.883L116.492 52.0312L113.484 54.6094C112.573 55.2865 111.492 55.625 110.242 55.625C108.992 55.625 107.742 55.625 106.492 55.625C105.971 55.3906 105.594 55.0391 105.359 54.5703C105.099 53.4505 105.008 52.2656 105.086 51.0156C105.346 49.6875 105.763 48.3984 106.336 47.1484C106.935 45.8724 107.651 44.6484 108.484 43.4766L108.875 43.3594L109.852 42.0703L110.242 41.9922L110.359 41.6406C111.453 40.7031 112.69 40.1172 114.07 39.8828C115.451 39.6484 116.883 39.6094 118.367 39.7656L120.008 40.625C120.503 41.25 120.711 41.9271 120.633 42.6562H122.781V43.6328C122.026 44.7786 121.557 46.0677 121.375 47.5C121.219 48.9062 121.141 50.3516 121.141 51.8359C121.323 53.112 121.779 54.2578 122.508 55.2734L122.898 55.4297V56.25H119.5ZM109.5 54.0625L111.883 52.2656H112.117L113.133 51.0547L113.992 50.1172C115.086 48.9714 116.089 47.7604 117 46.4844H117.273C117.924 45.625 118.38 44.7005 118.641 43.7109H117.273C117.352 42.7214 117.091 41.888 116.492 41.2109L115.75 41.1328C114.578 41.7318 113.576 42.5 112.742 43.4375C111.909 44.349 111.154 45.3125 110.477 46.3281C109.982 47.2917 109.539 48.3073 109.148 49.375C108.784 50.4167 108.562 51.4974 108.484 52.6172L108.992 54.1406H109.344L109.5 54.0625ZM152.156 55.3516V51.6016C152.312 49.6745 152.508 47.7995 152.742 45.9766C153.003 44.1276 153.302 42.2786 153.641 40.4297H157.039V41.5625C156.622 43.724 156.284 45.9766 156.023 48.3203C155.789 50.6641 155.62 53.0078 155.516 55.3516H152.156ZM155.047 34.7266V34.6094L154.148 33.7109V33.4766L153.641 33.2422L153.523 32.8516L152.781 32.4609L152.664 31.7188H156.141L157.547 32.9688V33.2422L157.898 33.3594L158.289 34.1016H158.523V34.6094L155.047 34.7266ZM164.617 55.3516L162.352 54.9609V54.3359H165.984L168.602 54.6094C169.852 54.4271 170.945 53.9193 171.883 53.0859C172.299 52.6693 172.508 52.1745 172.508 51.6016L172.234 50.8594L171.883 50.5859C170.451 49.4922 168.836 48.8021 167.039 48.5156C165.242 48.2292 163.51 47.7474 161.844 47.0703C161.427 46.5755 161.219 45.9896 161.219 45.3125C161.375 44.401 161.87 43.5677 162.703 42.8125L163.211 42.3047C164.799 41.237 166.518 40.4818 168.367 40.0391H173.523L174.773 40.7031C175.19 41.1979 175.307 41.7708 175.125 42.4219H171.766L171.375 41.3281L170.633 40.9375C168.94 41.4323 167.391 42.3047 165.984 43.5547L164.969 44.8047L164.734 45.8203L165.867 46.8359C167.534 47.3307 169.227 47.7344 170.945 48.0469C172.664 48.3333 174.188 49.0495 175.516 50.1953C175.932 50.8724 176.102 51.6276 176.023 52.4609L175.398 53.7109L174.773 53.9844L174.383 54.4922C173.367 54.987 172.234 55.2734 170.984 55.3516H164.617ZM184.461 55.4688C183.289 55.3906 182.208 55.0651 181.219 54.4922L181.062 54.1016L180.711 53.9844C179.539 52.3958 179.122 50.5078 179.461 48.3203C179.799 46.3932 180.594 44.6875 181.844 43.2031L184.227 41.4453C185.216 41.0286 186.31 40.8203 187.508 40.8203C188.732 40.8203 189.93 40.8203 191.102 40.8203C192.534 40.8984 193.745 41.4844 194.734 42.5781C195.151 43.2292 195.359 43.9714 195.359 44.8047L194.617 46.7188L194.266 46.8359L193.992 47.3438L193.602 47.4609L193.367 47.8125C191.935 48.9844 190.346 49.7917 188.602 50.2344C186.857 50.651 184.982 50.7682 182.977 50.5859V51.0938L183.836 53.2422L184.344 53.4766L184.461 53.8672L186.727 54.6094C188.654 54.2708 190.945 53.0599 193.602 50.9766L197.625 51.3281V51.8359L197.508 52.1094C195.581 53.3594 193.549 54.2969 191.414 54.9219C189.279 55.5469 186.961 55.7292 184.461 55.4688ZM186.961 48.9453C188.133 48.5286 189.227 47.9036 190.242 47.0703L191.727 45.1953L191.883 44.3359L190.867 42.6953C190.19 42.0964 189.435 41.7578 188.602 41.6797C187.352 42.0182 186.271 42.7344 185.359 43.8281L184.852 44.1797C183.68 45.8724 183.003 47.7604 182.82 49.8438H184.461L186.961 48.9453Z" fill="white"/>
<line x1="46.5" y1="21.5" x2="199.5" y2="21.5" stroke="#1CE8FF" stroke-width="7" stroke-linecap="round"/>
<circle cx="198" cy="21" r="14" fill="#EAFDFF"/>
<path d="M189.5 21L194.479 28L205 16" stroke="#F55D5D" stroke-width="3" stroke-linecap="round" stroke-linejoin="round"/>
</svg>
