<svg width="96" height="93" viewBox="0 0 96 93" fill="none" xmlns="http://www.w3.org/2000/svg">
<path d="M5.71875 91.9453V91.5H5.85938C6.0625 90.8438 6.16406 90.1406 6.16406 89.3906C6.16406 88.6406 6.1875 87.9141 6.23438 87.2109L6.16406 85.3359H5.78906C5.13281 85.5859 4.4375 85.7734 3.70312 85.8984C2.98438 86.0234 2.22656 86.0547 1.42969 85.9922V85.6172L6.09375 84.4219V83.8125L5.95312 82.3125H5.64844C5.03906 82.5156 4.39844 82.6719 3.72656 82.7812C3.05469 82.875 2.36719 82.8984 1.66406 82.8516V82.4766L8.34375 81.0469V80.8828H8.20312V80.3672L8.8125 76.8984H10.8281V77.3438L10.3125 80.8125H11.8125V81.1875C10.8594 81.2812 9.94531 81.4297 9.07031 81.6328C8.19531 81.8359 7.30469 82.0156 6.39844 82.1719V82.3125H7.96875L8.20312 83.8125L8.57812 83.9062C9.4375 83.75 10.3438 83.6953 11.2969 83.7422V84.1172L8.20312 84.7266V85.1016L8.27344 87.0469L10.3125 87.3516C11.1094 87.2109 11.9609 87.1641 12.8672 87.2109V86.0859L12.7969 85.2422L13.0078 82.0781H15.1172V82.7578L14.9766 84.5625H15.1172C16.3203 84.2188 17.5234 83.875 18.7266 83.5312C19.9297 83.1719 21.2109 83.0391 22.5703 83.1328V83.5078L19.0312 84.3516V84.4922H20.5312V86.2266L20.2266 90.9609H18.1406V90.0703L18.5156 84.5625H18.2812C17.2344 85.0156 16.1094 85.2422 14.9062 85.2422V86.2266L15.1172 87.5156H17.2266V87.8906C16.1797 88.4844 14.9531 88.6797 13.5469 88.4766L13.0078 87.8906L12.9375 87.2812H12.7969L12.7031 87.6562L11.8828 87.7969H8.57812L8.27344 87.7266C8.27344 88.4297 8.27344 89.1484 8.27344 89.8828C8.27344 90.6016 8.14844 91.2656 7.89844 91.875L5.71875 91.9453ZM1.80469 90.5156V90.4453L1.66406 89.7656C1.80469 88.6562 2.05469 87.6016 2.41406 86.6016H4.42969V86.9766C4.13281 87.9297 3.91406 88.9062 3.77344 89.9062H4.21875V90.2812L4.14844 90.4453L1.80469 90.5156ZM3.84375 80.9531C3.53125 80.4531 3.375 79.8672 3.375 79.1953C3.375 78.5234 3.375 77.8594 3.375 77.2031H1.05469V76.8281L6.53906 75.6094L6.70312 70.9453H8.8125V72.1641L8.71875 75.0938H9.09375C10.1094 74.8906 11.1875 74.8125 12.3281 74.8594V75.2344C10.9844 75.4375 9.64844 75.6953 8.32031 76.0078C6.99219 76.3047 5.67188 76.6016 4.35938 76.8984V77.0391H5.48438V79.6875H7.21875V80.0625L7.07812 80.2734C6.17188 80.9766 5.09375 81.2031 3.84375 80.9531ZM14.3672 80.8828V80.3672L16.4766 76.8984L16.8516 76.5234H18.9609V76.8984C18.3516 77.6016 17.7969 78.3516 17.2969 79.1484L16.4062 80.8828H14.3672ZM35.4141 91.2422V90.7031C35.8672 89.5938 36.3672 88.5156 36.9141 87.4688C37.4766 86.4219 38.0547 85.3672 38.6484 84.3047H38.8125V84.0938H38.5781L36.3984 84.1641L36.1641 82.1953H35.7891L29.8594 83.7188C29.7031 84.4688 29.5859 85.2188 29.5078 85.9688C29.4297 86.7188 29.3672 87.4922 29.3203 88.2891C29.3203 88.8516 29.4688 89.3281 29.7656 89.7188L29.9297 89.8125V90.1875H27.8203L27.5859 90.0234C27.2891 88.9766 27.1875 87.8281 27.2812 86.5781L27.5859 84.4688H27.4453C26.6484 84.7656 25.7734 84.8672 24.8203 84.7734V84.375C25.7734 83.9375 26.75 83.5938 27.75 83.3438L28.5 79.1953H28.1953C27.2891 79.6484 26.2578 79.7969 25.1016 79.6406V79.2656C25.7109 78.9688 26.3125 78.7344 26.9062 78.5625C27.5156 78.375 28.1484 78.2109 28.8047 78.0703C28.9453 77.3672 29.1016 76.6797 29.2734 76.0078C29.4609 75.3203 29.6797 74.6484 29.9297 73.9922H32.0391V74.3906C31.6328 75.3906 31.3281 76.4375 31.125 77.5312H31.4297L31.5 77.4609H34.6641L35.2031 77.6953V78.0703H33.0938L32.5547 78L30.8203 78.375L30 82.7344H30.1406C31.0938 82.5312 32.0469 82.3047 33 82.0547C33.9531 81.8047 34.9844 81.7266 36.0938 81.8203V81.375L36.0234 81.3047V76.8516L36.4688 73.1016H38.5781V73.6172L38.4375 74.2969H38.6484C39.5078 73.6562 40.4609 73.2266 41.5078 73.0078C42.5703 72.7734 43.6719 72.7031 44.8125 72.7969C45.4219 72.8438 45.9531 73.0938 46.4062 73.5469C46.8594 74.1562 47.0938 74.8594 47.1094 75.6562C47.1406 76.4531 47.1562 77.2578 47.1562 78.0703C47.0469 79.0703 46.8906 80.0469 46.6875 81C46.5 81.9531 46.3047 82.9062 46.1016 83.8594H43.9922V83.25H43.6172L39.8672 83.8594V84H40.9922V84.375C40.2891 85.4375 39.6328 86.5312 39.0234 87.6562C38.4297 88.7812 37.9297 89.9453 37.5234 91.1484L35.4141 91.2422ZM42.4922 90.4688L41.4375 90.0938C40.8281 89.25 40.625 88.25 40.8281 87.0938C40.875 86.6406 41.0312 86.2656 41.2969 85.9688H43.3125V86.3438C43.0156 86.8906 42.8672 87.5156 42.8672 88.2188C42.8672 88.8281 43.0938 89.3281 43.5469 89.7188L43.9922 89.8828C44.9922 89.4297 46.0938 89.2812 47.2969 89.4375V89.8125C46.5938 90.1562 45.8281 90.3672 45 90.4453C44.1719 90.5234 43.3359 90.5312 42.4922 90.4688ZM33.3047 86.3438C32.2578 86.25 31.2812 86 30.375 85.5938L30.3047 85.1484H32.3438C33.2969 85.5391 34.2969 85.8125 35.3438 85.9688V86.3438H33.3047ZM44.2266 82.7344V82.4297L44.7422 79.875H44.2969C43.25 80.0312 42.2344 80.2578 41.25 80.5547C40.2656 80.8516 39.2266 81.0234 38.1328 81.0703V81.3047L38.4375 83.25L38.9531 83.3438C39.8125 83.1875 40.6797 83.0469 41.5547 82.9219C42.4297 82.7969 43.3203 82.7344 44.2266 82.7344ZM44.8125 79.7109V79.3359C45.0156 78.1953 45.0938 76.9922 45.0469 75.7266C44.9531 74.9297 44.6484 74.2266 44.1328 73.6172L43.3125 73.4062C42.5625 73.6094 41.8594 73.9141 41.2031 74.3203C40.5625 74.7109 39.9141 75.1328 39.2578 75.5859L39.0234 76.0312H38.2031L38.1328 77.3906H38.3438C39 77.0938 39.7188 76.9453 40.5 76.9453C41.2812 76.9453 42.0469 76.9453 42.7969 76.9453L43.1016 77.1562V77.8359L42.7969 78.4453L40.6172 78.5156V78.1406L40.8984 77.625H40.6875C39.875 77.9688 38.9922 78.2188 38.0391 78.375V80.1094L38.1328 80.3906H38.3438C39.3594 80.0938 40.375 79.8438 41.3906 79.6406C42.4219 79.4375 43.5156 79.3906 44.6719 79.5L44.7422 79.8047L44.8125 79.7109ZM63.9609 91.125V90L63.8672 89.9062V82.0781L63.9609 80.3672H66.0469V81.7969L65.9766 81.8672V85.1719H66.1406L66.6562 84.4219H66.8203L67.1953 83.7422L67.6406 83.2969H67.7812L68.2266 82.6875C68.9297 82.5469 69.6875 82.5 70.5 82.5469V82.9219L69.5859 83.8125H69.4453L69.1406 84.3516L68.9062 84.4219C68.3594 85.1719 67.9375 85.9766 67.6406 86.8359L68.1562 86.9766C69.2656 86.4766 70.5 86.3047 71.8594 86.4609V86.8359C71.0469 87.1328 70.2188 87.3594 69.375 87.5156H66.2109L65.9766 87.4219V90.1406L66.0469 91.125H63.9609ZM52.5234 89.0859L52.1484 88.7109C51.9453 87.5547 51.8672 86.3516 51.9141 85.1016H51.7734L50.1797 87.3516H48.0703V86.9766L48.8203 85.8516H48.9844L49.4297 85.1016L49.6641 85.0312L50.0391 84.3516L51 83.2266L51.4688 82.7578H51.6094L51.8438 82.3125L52.3594 81.7031L54.3984 79.5234H56.5078V79.8984L56.2734 80.2031H56.1328L55.5938 80.9531L55.0781 81.4922H54.9141L54.3281 82.3125L54.0938 82.3828L53.8594 82.8516L53.4141 83.2969H53.2734V83.6016H53.9531L54.0234 83.7422V87.2109L54.1641 88.0312H55.7578V88.4062L55.0781 88.9453C54.2656 89.0859 53.4141 89.1328 52.5234 89.0859ZM59.2031 81.8672V81.1875C59.4531 79.625 59.7891 78.0859 60.2109 76.5703C60.6484 75.0391 61.1953 73.5469 61.8516 72.0938H63.8672V72.6094C63.3672 73.6562 62.9531 74.7188 62.625 75.7969C62.2969 76.875 62.0078 77.9922 61.7578 79.1484H61.9219C63.375 78.9453 64.8125 78.6953 66.2344 78.3984C67.6719 78.1016 69.1641 77.9766 70.7109 78.0234L70.8047 78.3984C69.2891 78.6016 67.7656 78.8594 66.2344 79.1719C64.7188 79.4688 63.1797 79.6406 61.6172 79.6875L61.2422 81.8672H59.2031ZM92.9062 91.875L92.2969 91.1953V91.0312L92.0625 90.9609L90.7969 89.3906L89.2969 87.0469H89.1328L88.8281 86.4609H88.6172L87.9375 86.9062L87.7734 87.1406L87.0938 87.5859L87.0234 87.7969H85.0078V87.4219L85.2891 87.2812L85.3828 87.0469L85.9688 86.5312L87.2578 85.6172L87.3281 85.4062L87.8672 85.1016V84.6562C87.3516 83.6406 86.8906 82.5938 86.4844 81.5156C86.0938 80.4375 85.75 79.3516 85.4531 78.2578L84.8438 78.1875C83.2344 78.3281 81.6406 78.5234 80.0625 78.7734C78.4844 79.0234 76.8672 79.125 75.2109 79.0781L75.1406 78.6328C76.8438 78.4766 78.5234 78.3047 80.1797 78.1172C81.8359 77.9141 83.5156 77.7578 85.2188 77.6484V77.2734C84.9688 76.5703 84.7422 75.8594 84.5391 75.1406C84.3359 74.4062 84.1875 73.6406 84.0938 72.8438H86.1328L87.3984 77.5078H91.3125V77.8828L87.6328 78.0234V78.3281C87.8828 79.1875 88.1562 80.0469 88.4531 80.9062C88.7656 81.75 89.0938 82.5703 89.4375 83.3672L89.6719 83.4375L90.1875 82.9219L90.7266 82.6172L90.7969 82.3828L91.6875 81.4219H93.7969V81.7969L91.7578 83.8125L90.3516 85.0312V85.2422L92.3672 88.4766L92.6016 88.6406L93.9609 90.5156L94.1719 90.5859C94.5781 90.9453 94.8281 91.375 94.9219 91.875H92.9062ZM80.0391 90.2812V89.9062C80.6328 89.1562 81.1406 88.3672 81.5625 87.5391C82 86.7109 82.2656 85.8203 82.3594 84.8672C82.2656 84.3203 82.0156 83.8438 81.6094 83.4375C81.1562 83.0938 80.6562 82.9219 80.1094 82.9219C79.1562 83.1719 78.25 83.5469 77.3906 84.0469C76.9375 85.1562 76.6406 86.3125 76.5 87.5156H77.6953V87.8906C76.7891 88.2812 75.7656 88.4062 74.625 88.2656C74.375 87.8125 74.2969 87.3125 74.3906 86.7656C74.6406 85.7031 74.9531 84.6562 75.3281 83.625C75.7031 82.5938 76.1172 81.6094 76.5703 80.6719H78.6797V81.0469L78.0703 82.5469H78.4453C79.4609 82.3906 80.5156 82.3359 81.6094 82.3828C82.4219 82.4453 83.1484 82.6953 83.7891 83.1328C84.3984 83.8359 84.6016 84.7188 84.3984 85.7812C84.2422 86.4844 84 87.1641 83.6719 87.8203C83.3594 88.4609 83 89.0859 82.5938 89.6953L82.0547 90.2812H80.0391ZM90.8672 75.4688C90.6172 74.4219 90.4688 73.3438 90.4219 72.2344H92.4375L92.8125 75.4688H90.8672Z" fill="#144895"/>
<path d="M32.1821 21.638H63.8177" stroke="#144895" stroke-width="4" stroke-linecap="round" stroke-linejoin="round"/>
<path d="M32.1821 36.9241H51.6816" stroke="#144895" stroke-width="4" stroke-linecap="round" stroke-linejoin="round"/>
<path d="M70.1176 2H25.8824C24.845 1.99999 23.8179 2.20943 22.8599 2.61631C21.9019 3.02318 21.0318 3.61949 20.2996 4.37104C19.5673 5.12258 18.9873 6.01458 18.5929 6.99587C18.1984 7.97717 17.9972 9.02847 18.0008 10.0895V46.8268C17.9863 47.8949 18.1795 48.9552 18.5691 49.9462C18.9587 50.9371 19.537 51.8391 20.2703 52.5995C21.0036 53.36 21.8774 53.9638 22.8408 54.3759C23.8042 54.7879 24.8381 55.0001 25.8824 55H40.1184H47.9992H55.8816H70.1176C71.1619 55.0001 72.1958 54.7879 73.1592 54.3759C74.1226 53.9638 74.9964 53.36 75.7297 52.5995C76.463 51.8391 77.0413 50.9371 77.4309 49.9462C77.8205 48.9552 78.0137 47.8949 77.9992 46.8268V10.0895C78.0028 9.02847 77.8016 7.97717 77.4071 6.99587C77.0127 6.01458 76.4327 5.12258 75.7004 4.37104C74.9682 3.61949 74.0981 3.02318 73.1401 2.61631C72.1821 2.20943 71.155 1.99999 70.1176 2Z" stroke="#1CE8FF" stroke-width="4" stroke-linecap="round" stroke-linejoin="round"/>
<circle cx="77.5" cy="54.5" r="11.5" fill="#144895" stroke="#144895" stroke-width="2"/>
<path d="M71.25 54.5555H83.7505" stroke="#EAFDFF" stroke-width="2" stroke-linecap="round"/>
<path d="M77.418 61.3745V48.8745" stroke="#EAFDFF" stroke-width="2" stroke-linecap="round"/>
</svg>
