<svg width="140" height="160" viewBox="0 0 140 160" fill="none" xmlns="http://www.w3.org/2000/svg">
<rect width="140" height="160" rx="20" fill="#EAFDFF"/>
<path d="M28.7188 131.945V131.5H28.8594C29.0625 130.844 29.1641 130.141 29.1641 129.391C29.1641 128.641 29.1875 127.914 29.2344 127.211L29.1641 125.336H28.7891C28.1328 125.586 27.4375 125.773 26.7031 125.898C25.9844 126.023 25.2266 126.055 24.4297 125.992V125.617L29.0938 124.422V123.812L28.9531 122.312H28.6484C28.0391 122.516 27.3984 122.672 26.7266 122.781C26.0547 122.875 25.3672 122.898 24.6641 122.852V122.477L31.3438 121.047V120.883H31.2031V120.367L31.8125 116.898H33.8281V117.344L33.3125 120.812H34.8125V121.188C33.8594 121.281 32.9453 121.43 32.0703 121.633C31.1953 121.836 30.3047 122.016 29.3984 122.172V122.312H30.9688L31.2031 123.812L31.5781 123.906C32.4375 123.75 33.3438 123.695 34.2969 123.742V124.117L31.2031 124.727V125.102L31.2734 127.047L33.3125 127.352C34.1094 127.211 34.9609 127.164 35.8672 127.211V126.086L35.7969 125.242L36.0078 122.078H38.1172V122.758L37.9766 124.562H38.1172C39.3203 124.219 40.5234 123.875 41.7266 123.531C42.9297 123.172 44.2109 123.039 45.5703 123.133V123.508L42.0312 124.352V124.492H43.5312V126.227L43.2266 130.961H41.1406V130.07L41.5156 124.562H41.2812C40.2344 125.016 39.1094 125.242 37.9062 125.242V126.227L38.1172 127.516H40.2266V127.891C39.1797 128.484 37.9531 128.68 36.5469 128.477L36.0078 127.891L35.9375 127.281H35.7969L35.7031 127.656L34.8828 127.797H31.5781L31.2734 127.727C31.2734 128.43 31.2734 129.148 31.2734 129.883C31.2734 130.602 31.1484 131.266 30.8984 131.875L28.7188 131.945ZM24.8047 130.516V130.445L24.6641 129.766C24.8047 128.656 25.0547 127.602 25.4141 126.602H27.4297V126.977C27.1328 127.93 26.9141 128.906 26.7734 129.906H27.2188V130.281L27.1484 130.445L24.8047 130.516ZM26.8438 120.953C26.5312 120.453 26.375 119.867 26.375 119.195C26.375 118.523 26.375 117.859 26.375 117.203H24.0547V116.828L29.5391 115.609L29.7031 110.945H31.8125V112.164L31.7188 115.094H32.0938C33.1094 114.891 34.1875 114.812 35.3281 114.859V115.234C33.9844 115.438 32.6484 115.695 31.3203 116.008C29.9922 116.305 28.6719 116.602 27.3594 116.898V117.039H28.4844V119.688H30.2188V120.062L30.0781 120.273C29.1719 120.977 28.0938 121.203 26.8438 120.953ZM37.3672 120.883V120.367L39.4766 116.898L39.8516 116.523H41.9609V116.898C41.3516 117.602 40.7969 118.352 40.2969 119.148L39.4062 120.883H37.3672ZM58.4141 131.242V130.703C58.8672 129.594 59.3672 128.516 59.9141 127.469C60.4766 126.422 61.0547 125.367 61.6484 124.305H61.8125V124.094H61.5781L59.3984 124.164L59.1641 122.195H58.7891L52.8594 123.719C52.7031 124.469 52.5859 125.219 52.5078 125.969C52.4297 126.719 52.3672 127.492 52.3203 128.289C52.3203 128.852 52.4688 129.328 52.7656 129.719L52.9297 129.812V130.188H50.8203L50.5859 130.023C50.2891 128.977 50.1875 127.828 50.2812 126.578L50.5859 124.469H50.4453C49.6484 124.766 48.7734 124.867 47.8203 124.773V124.375C48.7734 123.938 49.75 123.594 50.75 123.344L51.5 119.195H51.1953C50.2891 119.648 49.2578 119.797 48.1016 119.641V119.266C48.7109 118.969 49.3125 118.734 49.9062 118.562C50.5156 118.375 51.1484 118.211 51.8047 118.07C51.9453 117.367 52.1016 116.68 52.2734 116.008C52.4609 115.32 52.6797 114.648 52.9297 113.992H55.0391V114.391C54.6328 115.391 54.3281 116.438 54.125 117.531H54.4297L54.5 117.461H57.6641L58.2031 117.695V118.07H56.0938L55.5547 118L53.8203 118.375L53 122.734H53.1406C54.0938 122.531 55.0469 122.305 56 122.055C56.9531 121.805 57.9844 121.727 59.0938 121.82V121.375L59.0234 121.305V116.852L59.4688 113.102H61.5781V113.617L61.4375 114.297H61.6484C62.5078 113.656 63.4609 113.227 64.5078 113.008C65.5703 112.773 66.6719 112.703 67.8125 112.797C68.4219 112.844 68.9531 113.094 69.4062 113.547C69.8594 114.156 70.0938 114.859 70.1094 115.656C70.1406 116.453 70.1562 117.258 70.1562 118.07C70.0469 119.07 69.8906 120.047 69.6875 121C69.5 121.953 69.3047 122.906 69.1016 123.859H66.9922V123.25H66.6172L62.8672 123.859V124H63.9922V124.375C63.2891 125.438 62.6328 126.531 62.0234 127.656C61.4297 128.781 60.9297 129.945 60.5234 131.148L58.4141 131.242ZM65.4922 130.469L64.4375 130.094C63.8281 129.25 63.625 128.25 63.8281 127.094C63.875 126.641 64.0312 126.266 64.2969 125.969H66.3125V126.344C66.0156 126.891 65.8672 127.516 65.8672 128.219C65.8672 128.828 66.0938 129.328 66.5469 129.719L66.9922 129.883C67.9922 129.43 69.0938 129.281 70.2969 129.438V129.812C69.5938 130.156 68.8281 130.367 68 130.445C67.1719 130.523 66.3359 130.531 65.4922 130.469ZM56.3047 126.344C55.2578 126.25 54.2812 126 53.375 125.594L53.3047 125.148H55.3438C56.2969 125.539 57.2969 125.812 58.3438 125.969V126.344H56.3047ZM67.2266 122.734V122.43L67.7422 119.875H67.2969C66.25 120.031 65.2344 120.258 64.25 120.555C63.2656 120.852 62.2266 121.023 61.1328 121.07V121.305L61.4375 123.25L61.9531 123.344C62.8125 123.188 63.6797 123.047 64.5547 122.922C65.4297 122.797 66.3203 122.734 67.2266 122.734ZM67.8125 119.711V119.336C68.0156 118.195 68.0938 116.992 68.0469 115.727C67.9531 114.93 67.6484 114.227 67.1328 113.617L66.3125 113.406C65.5625 113.609 64.8594 113.914 64.2031 114.32C63.5625 114.711 62.9141 115.133 62.2578 115.586L62.0234 116.031H61.2031L61.1328 117.391H61.3438C62 117.094 62.7188 116.945 63.5 116.945C64.2812 116.945 65.0469 116.945 65.7969 116.945L66.1016 117.156V117.836L65.7969 118.445L63.6172 118.516V118.141L63.8984 117.625H63.6875C62.875 117.969 61.9922 118.219 61.0391 118.375V120.109L61.1328 120.391H61.3438C62.3594 120.094 63.375 119.844 64.3906 119.641C65.4219 119.438 66.5156 119.391 67.6719 119.5L67.7422 119.805L67.8125 119.711ZM86.9609 131.125V130L86.8672 129.906V122.078L86.9609 120.367H89.0469V121.797L88.9766 121.867V125.172H89.1406L89.6562 124.422H89.8203L90.1953 123.742L90.6406 123.297H90.7812L91.2266 122.688C91.9297 122.547 92.6875 122.5 93.5 122.547V122.922L92.5859 123.812H92.4453L92.1406 124.352L91.9062 124.422C91.3594 125.172 90.9375 125.977 90.6406 126.836L91.1562 126.977C92.2656 126.477 93.5 126.305 94.8594 126.461V126.836C94.0469 127.133 93.2188 127.359 92.375 127.516H89.2109L88.9766 127.422V130.141L89.0469 131.125H86.9609ZM75.5234 129.086L75.1484 128.711C74.9453 127.555 74.8672 126.352 74.9141 125.102H74.7734L73.1797 127.352H71.0703V126.977L71.8203 125.852H71.9844L72.4297 125.102L72.6641 125.031L73.0391 124.352L74 123.227L74.4688 122.758H74.6094L74.8438 122.312L75.3594 121.703L77.3984 119.523H79.5078V119.898L79.2734 120.203H79.1328L78.5938 120.953L78.0781 121.492H77.9141L77.3281 122.312L77.0938 122.383L76.8594 122.852L76.4141 123.297H76.2734V123.602H76.9531L77.0234 123.742V127.211L77.1641 128.031H78.7578V128.406L78.0781 128.945C77.2656 129.086 76.4141 129.133 75.5234 129.086ZM82.2031 121.867V121.188C82.4531 119.625 82.7891 118.086 83.2109 116.57C83.6484 115.039 84.1953 113.547 84.8516 112.094H86.8672V112.609C86.3672 113.656 85.9531 114.719 85.625 115.797C85.2969 116.875 85.0078 117.992 84.7578 119.148H84.9219C86.375 118.945 87.8125 118.695 89.2344 118.398C90.6719 118.102 92.1641 117.977 93.7109 118.023L93.8047 118.398C92.2891 118.602 90.7656 118.859 89.2344 119.172C87.7188 119.469 86.1797 119.641 84.6172 119.688L84.2422 121.867H82.2031ZM115.906 131.875L115.297 131.195V131.031L115.062 130.961L113.797 129.391L112.297 127.047H112.133L111.828 126.461H111.617L110.938 126.906L110.773 127.141L110.094 127.586L110.023 127.797H108.008V127.422L108.289 127.281L108.383 127.047L108.969 126.531L110.258 125.617L110.328 125.406L110.867 125.102V124.656C110.352 123.641 109.891 122.594 109.484 121.516C109.094 120.438 108.75 119.352 108.453 118.258L107.844 118.188C106.234 118.328 104.641 118.523 103.062 118.773C101.484 119.023 99.8672 119.125 98.2109 119.078L98.1406 118.633C99.8438 118.477 101.523 118.305 103.18 118.117C104.836 117.914 106.516 117.758 108.219 117.648V117.273C107.969 116.57 107.742 115.859 107.539 115.141C107.336 114.406 107.188 113.641 107.094 112.844H109.133L110.398 117.508H114.312V117.883L110.633 118.023V118.328C110.883 119.188 111.156 120.047 111.453 120.906C111.766 121.75 112.094 122.57 112.438 123.367L112.672 123.438L113.188 122.922L113.727 122.617L113.797 122.383L114.688 121.422H116.797V121.797L114.758 123.812L113.352 125.031V125.242L115.367 128.477L115.602 128.641L116.961 130.516L117.172 130.586C117.578 130.945 117.828 131.375 117.922 131.875H115.906ZM103.039 130.281V129.906C103.633 129.156 104.141 128.367 104.562 127.539C105 126.711 105.266 125.82 105.359 124.867C105.266 124.32 105.016 123.844 104.609 123.438C104.156 123.094 103.656 122.922 103.109 122.922C102.156 123.172 101.25 123.547 100.391 124.047C99.9375 125.156 99.6406 126.312 99.5 127.516H100.695V127.891C99.7891 128.281 98.7656 128.406 97.625 128.266C97.375 127.812 97.2969 127.312 97.3906 126.766C97.6406 125.703 97.9531 124.656 98.3281 123.625C98.7031 122.594 99.1172 121.609 99.5703 120.672H101.68V121.047L101.07 122.547H101.445C102.461 122.391 103.516 122.336 104.609 122.383C105.422 122.445 106.148 122.695 106.789 123.133C107.398 123.836 107.602 124.719 107.398 125.781C107.242 126.484 107 127.164 106.672 127.82C106.359 128.461 106 129.086 105.594 129.695L105.055 130.281H103.039ZM113.867 115.469C113.617 114.422 113.469 113.344 113.422 112.234H115.438L115.812 115.469H113.867Z" fill="#144895"/>
<path d="M55.1821 61.638H86.8177" stroke="#144895" stroke-width="4" stroke-linecap="round" stroke-linejoin="round"/>
<path d="M55.1821 76.9241H74.6816" stroke="#144895" stroke-width="4" stroke-linecap="round" stroke-linejoin="round"/>
<path d="M93.1176 42H48.8824C47.845 42 46.8179 42.2094 45.8599 42.6163C44.9019 43.0232 44.0318 43.6195 43.2996 44.371C42.5673 45.1226 41.9873 46.0146 41.5929 46.9959C41.1984 47.9772 40.9972 49.0285 41.0008 50.0895V86.8268C40.9863 87.8949 41.1795 88.9552 41.5691 89.9462C41.9587 90.9371 42.537 91.8391 43.2703 92.5995C44.0036 93.36 44.8774 93.9638 45.8408 94.3759C46.8042 94.7879 47.8381 95.0001 48.8824 95H63.1184H70.9992H78.8816H93.1176C94.1619 95.0001 95.1958 94.7879 96.1592 94.3759C97.1226 93.9638 97.9964 93.36 98.7297 92.5995C99.463 91.8391 100.041 90.9371 100.431 89.9462C100.821 88.9552 101.014 87.8949 100.999 86.8268V50.0895C101.003 49.0285 100.802 47.9772 100.407 46.9959C100.013 46.0146 99.4327 45.1226 98.7004 44.371C97.9682 43.6195 97.0981 43.0232 96.1401 42.6163C95.1821 42.2094 94.155 42 93.1176 42Z" stroke="#1CE8FF" stroke-width="4" stroke-linecap="round" stroke-linejoin="round"/>
<circle cx="100.5" cy="94.5" r="11.5" fill="#144895" stroke="#144895" stroke-width="2"/>
<path d="M94.2498 94.5555H106.75" stroke="#EAFDFF" stroke-width="2" stroke-linecap="round"/>
<path d="M100.418 101.375V88.8745" stroke="#EAFDFF" stroke-width="2" stroke-linecap="round"/>
</svg>
