<svg width="140" height="160" viewBox="0 0 140 160" fill="none" xmlns="http://www.w3.org/2000/svg">
<rect width="140" height="160" rx="20" fill="#EAFDFF"/>
<path d="M43.0312 130.961L42.5859 130.445V128.711L43.0312 126.602C42.3438 126.305 41.6328 126.047 40.8984 125.828C40.1641 125.594 39.3984 125.398 38.6016 125.242C38.4453 125.852 38.2266 126.445 37.9453 127.023C37.6797 127.602 37.3203 128.141 36.8672 128.641C36.2266 129.234 35.4766 129.594 34.6172 129.719C33.7578 129.844 32.8516 129.883 31.8984 129.836C31.0078 129.836 30.2109 129.539 29.5078 128.945L29.2031 128.641C28.9062 128.141 28.8047 127.539 28.8984 126.836L29.5078 125.781L29.8125 125.477C30.8125 124.773 31.9141 124.375 33.1172 124.281H36.7266C36.9766 123.328 37.1641 122.352 37.2891 121.352C37.4141 120.336 37.4531 119.305 37.4062 118.258C37.2969 117.445 37.125 116.664 36.8906 115.914C36.6719 115.164 36.4141 114.414 36.1172 113.664H38.2266C38.7734 114.664 39.1328 115.758 39.3047 116.945C39.4922 118.117 39.5625 119.328 39.5156 120.578C39.4531 121.234 39.3594 121.891 39.2344 122.547C39.1094 123.188 38.9766 123.836 38.8359 124.492C39.5859 124.602 40.3203 124.742 41.0391 124.914C41.7734 125.086 42.5156 125.273 43.2656 125.477L45.0703 120.672H47.1094V121.188C46.75 121.984 46.4219 122.812 46.125 123.672C45.8281 124.516 45.5781 125.391 45.375 126.297C46.5312 126.75 47.6328 127.305 48.6797 127.961L48.75 128.477H46.7344C46.1719 128.023 45.5938 127.672 45 127.422C44.75 128.234 44.6484 129.117 44.6953 130.07H46.4297V130.445C45.4297 130.992 44.2969 131.164 43.0312 130.961ZM33.7031 129.016C34.7188 128.469 35.4531 127.688 35.9062 126.672L36.4922 124.797L34.6875 124.727C33.6875 124.867 32.7891 125.219 31.9922 125.781L31.8984 125.922L31.1484 126.672L30.9375 127.422C31.0312 127.875 31.2812 128.281 31.6875 128.641C32.1406 129.094 32.6641 129.289 33.2578 129.227L33.7031 129.016ZM60.5391 129.836L59.9297 129.531L59.625 129.227C59.1719 128.633 58.8672 127.984 58.7109 127.281C58.5703 126.578 58.4219 125.875 58.2656 125.172H58.0547L57.8906 125.406L56.25 126.977L55.5703 127.656L54.7266 128.266C54.1797 128.906 53.5625 129.266 52.875 129.344C52.2031 129.422 51.5234 129.438 50.8359 129.391L50.4609 129.227C49.9453 128.18 49.7656 127.008 49.9219 125.711C50.0156 124.055 50.1641 122.398 50.3672 120.742C50.5703 119.086 50.875 117.477 51.2812 115.914H53.2969V116.383C52.9062 118.133 52.6094 119.922 52.4062 121.75C52.2031 123.578 52.0781 125.445 52.0312 127.352L52.1719 128.266L52.7812 127.891L53.5312 127.141L54.5859 126.086L55.7812 124.938C56.2969 124.391 56.8906 124.086 57.5625 124.023C58.2344 123.945 58.9453 123.93 59.6953 123.977L60.3047 124.727C60.4609 125.477 60.625 126.242 60.7969 127.023C60.9688 127.805 61.3281 128.492 61.875 129.086L62.3438 129.156C64.7812 127.75 66.7109 126.25 68.1328 124.656H70.2422V125.031C68.6953 126.406 67.4922 127.453 66.6328 128.172C65.7734 128.875 64.8438 129.367 63.8438 129.648C62.8438 129.93 61.7422 129.992 60.5391 129.836ZM81.6797 130.656C81.0703 130.609 80.5391 130.359 80.0859 129.906C79.7891 129.453 79.6641 128.953 79.7109 128.406C79.8203 127.812 80.0703 127.289 80.4609 126.836L80.6953 126.766L80.7656 126.531C81.2656 126.078 81.8281 125.75 82.4531 125.547C83.0938 125.344 83.7656 125.273 84.4688 125.336V123.438L84.375 122.617H86.4844V125.406C87.3906 125.547 88.1953 125.898 88.8984 126.461L89.2734 126.836V126.977L89.5078 127.047C90.0078 127.5 90.3047 128.031 90.3984 128.641H88.2891L87.6094 127.516L87.3984 127.422L86.5547 126.766C86.6641 127.969 86.4922 129.07 86.0391 130.07L85.7344 130.375L84.9844 130.656H81.6797ZM83.5547 130L84.2344 129.227C84.4375 128.227 84.5156 127.148 84.4688 125.992H84.2344L82.7344 126.906C82.2344 127.5 81.9297 128.148 81.8203 128.852L82.3594 129.766L83.3203 130.141L83.5547 130ZM74.9766 126.367L74.6016 126.156C74.3984 125.406 74.3203 124.602 74.3672 123.742L75.5156 117.953H75.2109C74.6484 118.203 74.0391 118.367 73.3828 118.445C72.7422 118.523 72.0703 118.531 71.3672 118.469V118.094L75.7969 116.898C76 116.102 76.2031 115.305 76.4062 114.508C76.6094 113.695 76.8594 112.914 77.1562 112.164H79.2656V112.539C79.0156 113.133 78.8047 113.75 78.6328 114.391C78.4609 115.016 78.2969 115.648 78.1406 116.289H78.375C79.375 116.086 80.3516 115.836 81.3047 115.539C82.2578 115.242 83.2812 115.117 84.375 115.164V115.539L84.3047 115.703L77.8359 117.273C77.5391 118.586 77.25 119.883 76.9688 121.164C76.6875 122.43 76.5 123.742 76.4062 125.102H76.5469L77.3203 124.422H79.4062V124.797L78.5859 125.547C77.5859 126.359 76.3828 126.633 74.9766 126.367ZM87.1641 120.742V120.367C87.7109 119.508 88.2109 118.625 88.6641 117.719H88.4531C87.4375 118.078 86.4688 118.484 85.5469 118.938C84.625 119.391 83.5625 119.539 82.3594 119.383V119.008C83.6094 118.398 84.9062 117.875 86.25 117.438C87.6094 116.984 89.0703 116.828 90.6328 116.969C90.9766 117.078 91.1016 117.328 91.0078 117.719L89.3438 120.672L87.1641 120.742ZM105.445 129.836C104.586 129.789 103.805 129.562 103.102 129.156C102.695 128.703 102.547 128.125 102.656 127.422C103.109 125.922 103.75 124.5 104.578 123.156C105.406 121.797 106.117 120.391 106.711 118.938L106.031 118.703C103.484 119.156 100.977 119.852 98.5078 120.789C96.0547 121.711 93.5469 122.367 90.9844 122.758V122.383C93.6406 121.336 96.3828 120.375 99.2109 119.5C102.055 118.625 104.961 118.188 107.93 118.188L108.68 118.469L108.82 119.383C108.164 120.836 107.406 122.258 106.547 123.648C105.703 125.023 105.109 126.508 104.766 128.102L105.07 128.781C105.914 129.281 106.914 129.484 108.07 129.391C109.227 129.188 110.43 129.109 111.68 129.156V129.531L109.125 129.836H105.445ZM109.805 119.242V118.398L110.016 114.273H112.125V114.648L111.914 119.242H109.805ZM107.086 117.273V116.523L107.016 116.453V112.68H109.125V116.383L109.195 117.273H107.086Z" fill="#144895"/>
<g clip-path="url(#clip0_597_211)">
<path d="M70 66.4506C76.0596 66.4506 80.973 61.5372 80.973 55.477C80.973 49.4179 76.0596 44.5045 70 44.5045C63.9403 44.5045 59.0276 49.4177 59.0276 55.477C59.0275 61.5372 63.9402 66.4506 70 66.4506Z" fill="#144895"/>
<path d="M94.1863 75.7557C98.7041 75.7557 102.367 72.0926 102.367 67.5737C102.367 63.056 98.7041 59.393 94.1863 59.393C89.6685 59.393 86.0044 63.056 86.0044 67.5737C86.0044 72.0926 89.6685 75.7557 94.1863 75.7557Z" fill="#1CE8FF"/>
<path d="M94.2789 100.394C91.1335 100.394 88.7279 99.4151 86.9883 98.1086C87.3566 97.3029 87.6176 96.5244 87.771 95.8095L87.8462 95.4579V77.6363H95.5616C100.774 77.6363 105 81.8619 105 87.0747V93.2477C104.436 95.8793 101.05 100.394 94.2789 100.394Z" fill="#1CE8FF"/>
<path d="M45.8139 59.3929C41.2956 59.3929 37.6331 63.0559 37.6331 67.5736C37.6331 72.0924 41.2956 75.7555 45.8139 75.7555C50.3322 75.7555 53.9953 72.0924 53.9953 67.5736C53.9953 63.056 50.3322 59.3929 45.8139 59.3929Z" fill="#1CE8FF"/>
<path d="M35 93.2474V87.0745C35 81.8616 39.2256 77.6361 44.4384 77.6361H52.1537V95.4578L52.2289 95.8094C52.3823 96.5243 52.6437 97.3029 53.0117 98.1085C51.2714 99.415 48.866 100.394 45.7211 100.394C38.9501 100.394 35.5641 95.8793 35 93.2474Z" fill="#1CE8FF"/>
<path d="M69.9999 68.9731C60.919 68.9731 56.3787 75.027 55.6216 78.5585V94.3472C55.6216 97.1899 57.9269 99.4954 60.7697 99.4954H79.23C82.0728 99.4954 84.3782 97.19 84.3782 94.3472V78.5585C83.6216 75.027 79.0809 68.9731 69.9999 68.9731Z" fill="#144895"/>
</g>
<defs>
<clipPath id="clip0_597_211">
<rect width="70" height="70" fill="white" transform="translate(35 37)"/>
</clipPath>
</defs>
</svg>
