<svg width="85" height="96" viewBox="0 0 85 96" fill="none" xmlns="http://www.w3.org/2000/svg">
<path d="M15.0312 93.9609L14.5859 93.4453V91.7109L15.0312 89.6016C14.3438 89.3047 13.6328 89.0469 12.8984 88.8281C12.1641 88.5938 11.3984 88.3984 10.6016 88.2422C10.4453 88.8516 10.2266 89.4453 9.94531 90.0234C9.67969 90.6016 9.32031 91.1406 8.86719 91.6406C8.22656 92.2344 7.47656 92.5938 6.61719 92.7188C5.75781 92.8438 4.85156 92.8828 3.89844 92.8359C3.00781 92.8359 2.21094 92.5391 1.50781 91.9453L1.20312 91.6406C0.90625 91.1406 0.804688 90.5391 0.898438 89.8359L1.50781 88.7812L1.8125 88.4766C2.8125 87.7734 3.91406 87.375 5.11719 87.2812H8.72656C8.97656 86.3281 9.16406 85.3516 9.28906 84.3516C9.41406 83.3359 9.45312 82.3047 9.40625 81.2578C9.29688 80.4453 9.125 79.6641 8.89062 78.9141C8.67188 78.1641 8.41406 77.4141 8.11719 76.6641H10.2266C10.7734 77.6641 11.1328 78.7578 11.3047 79.9453C11.4922 81.1172 11.5625 82.3281 11.5156 83.5781C11.4531 84.2344 11.3594 84.8906 11.2344 85.5469C11.1094 86.1875 10.9766 86.8359 10.8359 87.4922C11.5859 87.6016 12.3203 87.7422 13.0391 87.9141C13.7734 88.0859 14.5156 88.2734 15.2656 88.4766L17.0703 83.6719H19.1094V84.1875C18.75 84.9844 18.4219 85.8125 18.125 86.6719C17.8281 87.5156 17.5781 88.3906 17.375 89.2969C18.5312 89.75 19.6328 90.3047 20.6797 90.9609L20.75 91.4766H18.7344C18.1719 91.0234 17.5938 90.6719 17 90.4219C16.75 91.2344 16.6484 92.1172 16.6953 93.0703H18.4297V93.4453C17.4297 93.9922 16.2969 94.1641 15.0312 93.9609ZM5.70312 92.0156C6.71875 91.4688 7.45312 90.6875 7.90625 89.6719L8.49219 87.7969L6.6875 87.7266C5.6875 87.8672 4.78906 88.2188 3.99219 88.7812L3.89844 88.9219L3.14844 89.6719L2.9375 90.4219C3.03125 90.875 3.28125 91.2812 3.6875 91.6406C4.14062 92.0938 4.66406 92.2891 5.25781 92.2266L5.70312 92.0156ZM32.5391 92.8359L31.9297 92.5312L31.625 92.2266C31.1719 91.6328 30.8672 90.9844 30.7109 90.2812C30.5703 89.5781 30.4219 88.875 30.2656 88.1719H30.0547L29.8906 88.4062L28.25 89.9766L27.5703 90.6562L26.7266 91.2656C26.1797 91.9062 25.5625 92.2656 24.875 92.3438C24.2031 92.4219 23.5234 92.4375 22.8359 92.3906L22.4609 92.2266C21.9453 91.1797 21.7656 90.0078 21.9219 88.7109C22.0156 87.0547 22.1641 85.3984 22.3672 83.7422C22.5703 82.0859 22.875 80.4766 23.2812 78.9141H25.2969V79.3828C24.9062 81.1328 24.6094 82.9219 24.4062 84.75C24.2031 86.5781 24.0781 88.4453 24.0312 90.3516L24.1719 91.2656L24.7812 90.8906L25.5312 90.1406L26.5859 89.0859L27.7812 87.9375C28.2969 87.3906 28.8906 87.0859 29.5625 87.0234C30.2344 86.9453 30.9453 86.9297 31.6953 86.9766L32.3047 87.7266C32.4609 88.4766 32.625 89.2422 32.7969 90.0234C32.9688 90.8047 33.3281 91.4922 33.875 92.0859L34.3438 92.1562C36.7812 90.75 38.7109 89.25 40.1328 87.6562H42.2422V88.0312C40.6953 89.4062 39.4922 90.4531 38.6328 91.1719C37.7734 91.875 36.8438 92.3672 35.8438 92.6484C34.8438 92.9297 33.7422 92.9922 32.5391 92.8359ZM53.6797 93.6562C53.0703 93.6094 52.5391 93.3594 52.0859 92.9062C51.7891 92.4531 51.6641 91.9531 51.7109 91.4062C51.8203 90.8125 52.0703 90.2891 52.4609 89.8359L52.6953 89.7656L52.7656 89.5312C53.2656 89.0781 53.8281 88.75 54.4531 88.5469C55.0938 88.3438 55.7656 88.2734 56.4688 88.3359V86.4375L56.375 85.6172H58.4844V88.4062C59.3906 88.5469 60.1953 88.8984 60.8984 89.4609L61.2734 89.8359V89.9766L61.5078 90.0469C62.0078 90.5 62.3047 91.0312 62.3984 91.6406H60.2891L59.6094 90.5156L59.3984 90.4219L58.5547 89.7656C58.6641 90.9688 58.4922 92.0703 58.0391 93.0703L57.7344 93.375L56.9844 93.6562H53.6797ZM55.5547 93L56.2344 92.2266C56.4375 91.2266 56.5156 90.1484 56.4688 88.9922H56.2344L54.7344 89.9062C54.2344 90.5 53.9297 91.1484 53.8203 91.8516L54.3594 92.7656L55.3203 93.1406L55.5547 93ZM46.9766 89.3672L46.6016 89.1562C46.3984 88.4062 46.3203 87.6016 46.3672 86.7422L47.5156 80.9531H47.2109C46.6484 81.2031 46.0391 81.3672 45.3828 81.4453C44.7422 81.5234 44.0703 81.5312 43.3672 81.4688V81.0938L47.7969 79.8984C48 79.1016 48.2031 78.3047 48.4062 77.5078C48.6094 76.6953 48.8594 75.9141 49.1562 75.1641H51.2656V75.5391C51.0156 76.1328 50.8047 76.75 50.6328 77.3906C50.4609 78.0156 50.2969 78.6484 50.1406 79.2891H50.375C51.375 79.0859 52.3516 78.8359 53.3047 78.5391C54.2578 78.2422 55.2812 78.1172 56.375 78.1641V78.5391L56.3047 78.7031L49.8359 80.2734C49.5391 81.5859 49.25 82.8828 48.9688 84.1641C48.6875 85.4297 48.5 86.7422 48.4062 88.1016H48.5469L49.3203 87.4219H51.4062V87.7969L50.5859 88.5469C49.5859 89.3594 48.3828 89.6328 46.9766 89.3672ZM59.1641 83.7422V83.3672C59.7109 82.5078 60.2109 81.625 60.6641 80.7188H60.4531C59.4375 81.0781 58.4688 81.4844 57.5469 81.9375C56.625 82.3906 55.5625 82.5391 54.3594 82.3828V82.0078C55.6094 81.3984 56.9062 80.875 58.25 80.4375C59.6094 79.9844 61.0703 79.8281 62.6328 79.9688C62.9766 80.0781 63.1016 80.3281 63.0078 80.7188L61.3438 83.6719L59.1641 83.7422ZM77.4453 92.8359C76.5859 92.7891 75.8047 92.5625 75.1016 92.1562C74.6953 91.7031 74.5469 91.125 74.6562 90.4219C75.1094 88.9219 75.75 87.5 76.5781 86.1562C77.4062 84.7969 78.1172 83.3906 78.7109 81.9375L78.0312 81.7031C75.4844 82.1562 72.9766 82.8516 70.5078 83.7891C68.0547 84.7109 65.5469 85.3672 62.9844 85.7578V85.3828C65.6406 84.3359 68.3828 83.375 71.2109 82.5C74.0547 81.625 76.9609 81.1875 79.9297 81.1875L80.6797 81.4688L80.8203 82.3828C80.1641 83.8359 79.4062 85.2578 78.5469 86.6484C77.7031 88.0234 77.1094 89.5078 76.7656 91.1016L77.0703 91.7812C77.9141 92.2812 78.9141 92.4844 80.0703 92.3906C81.2266 92.1875 82.4297 92.1094 83.6797 92.1562V92.5312L81.125 92.8359H77.4453ZM81.8047 82.2422V81.3984L82.0156 77.2734H84.125V77.6484L83.9141 82.2422H81.8047ZM79.0859 80.2734V79.5234L79.0156 79.4531V75.6797H81.125V79.3828L81.1953 80.2734H79.0859Z" fill="#144895"/>
<g clip-path="url(#clip0_302_207)">
<path d="M42.0002 29.4506C48.0598 29.4506 52.9732 24.5372 52.9732 18.477C52.9732 12.4179 48.0598 7.50449 42.0002 7.50449C35.9405 7.50449 31.0278 12.4177 31.0278 18.477C31.0277 24.5372 35.9404 29.4506 42.0002 29.4506Z" fill="#144895"/>
<path d="M66.1863 38.7556C70.7041 38.7556 74.367 35.0925 74.367 30.5737C74.367 26.056 70.7041 22.393 66.1863 22.393C61.6685 22.393 58.0044 26.056 58.0044 30.5737C58.0044 35.0925 61.6685 38.7556 66.1863 38.7556Z" fill="#1CE8FF"/>
<path d="M66.2789 63.3941C63.1335 63.3941 60.7279 62.4151 58.9883 61.1086C59.3566 60.3029 59.6176 59.5244 59.771 58.8095L59.8462 58.4579V40.6363H67.5616C72.7745 40.6363 77 44.8619 77 50.0747V56.2477C76.4363 58.8792 73.0498 63.3941 66.2789 63.3941Z" fill="#1CE8FF"/>
<path d="M17.8141 22.3929C13.2959 22.3929 9.6333 26.0559 9.6333 30.5736C9.6333 35.0924 13.2959 38.7555 17.8141 38.7555C22.3324 38.7555 25.9955 35.0924 25.9955 30.5736C25.9955 26.056 22.3324 22.3929 17.8141 22.3929Z" fill="#1CE8FF"/>
<path d="M7 56.2475V50.0745C7 44.8617 11.2256 40.6361 16.4384 40.6361H24.1537V58.4578L24.2289 58.8095C24.3823 59.5244 24.6437 60.303 25.0117 61.1085C23.2714 62.415 20.866 63.394 17.7211 63.394C10.9501 63.3942 7.5641 58.8793 7 56.2475Z" fill="#1CE8FF"/>
<path d="M41.9999 31.973C32.919 31.973 28.3787 38.0269 27.6216 41.5585V57.3472C27.6216 60.1899 29.9269 62.4953 32.7697 62.4953H51.23C54.0728 62.4953 56.3782 60.19 56.3782 57.3472V41.5585C55.6216 38.0269 51.0809 31.973 41.9999 31.973Z" fill="#144895"/>
</g>
<defs>
<clipPath id="clip0_302_207">
<rect width="70" height="70" fill="white" transform="translate(7)"/>
</clipPath>
</defs>
</svg>
