<svg width="70" height="70" viewBox="0 0 70 70" fill="none" xmlns="http://www.w3.org/2000/svg">
<g clip-path="url(#clip0_290_186)">
<path d="M35.0002 29.4506C41.0598 29.4506 45.9732 24.5372 45.9732 18.477C45.9732 12.4179 41.0598 7.50449 35.0002 7.50449C28.9405 7.50449 24.0278 12.4177 24.0278 18.477C24.0277 24.5372 28.9404 29.4506 35.0002 29.4506Z" fill="#144895"/>
<path d="M59.1863 38.7556C63.7041 38.7556 67.367 35.0925 67.367 30.5737C67.367 26.056 63.7041 22.393 59.1863 22.393C54.6685 22.393 51.0044 26.056 51.0044 30.5737C51.0044 35.0925 54.6685 38.7556 59.1863 38.7556Z" fill="#1CE8FF"/>
<path d="M59.2789 63.3941C56.1335 63.3941 53.7279 62.4151 51.9883 61.1086C52.3566 60.3029 52.6176 59.5244 52.771 58.8095L52.8462 58.4579V40.6363H60.5616C65.7745 40.6363 70 44.8619 70 50.0747V56.2477C69.4363 58.8792 66.0498 63.3941 59.2789 63.3941Z" fill="#1CE8FF"/>
<path d="M10.8141 22.3929C6.29586 22.3929 2.6333 26.0559 2.6333 30.5736C2.6333 35.0924 6.29586 38.7555 10.8141 38.7555C15.3324 38.7555 18.9955 35.0924 18.9955 30.5736C18.9955 26.056 15.3324 22.3929 10.8141 22.3929Z" fill="#1CE8FF"/>
<path d="M0 56.2475V50.0745C0 44.8617 4.22557 40.6361 9.43838 40.6361H17.1537V58.4578L17.2289 58.8095C17.3823 59.5244 17.6437 60.303 18.0117 61.1085C16.2714 62.415 13.866 63.394 10.7211 63.394C3.95008 63.3942 0.564102 58.8793 0 56.2475Z" fill="#1CE8FF"/>
<path d="M34.9999 31.973C25.919 31.973 21.3787 38.0269 20.6216 41.5585V57.3472C20.6216 60.1899 22.9269 62.4953 25.7697 62.4953H44.23C47.0728 62.4953 49.3782 60.19 49.3782 57.3472V41.5585C48.6216 38.0269 44.0809 31.973 34.9999 31.973Z" fill="#144895"/>
</g>
<defs>
<clipPath id="clip0_290_186">
<rect width="70" height="70" fill="white"/>
</clipPath>
</defs>
</svg>
