<svg width="140" height="160" viewBox="0 0 140 160" fill="none" xmlns="http://www.w3.org/2000/svg">
<rect width="140" height="160" rx="20" fill="#EAFDFF"/>
<path d="M39.7891 130.656L38.3594 130.211L38.2891 130L37.8438 129.766C37.3438 129.016 37.1406 128.164 37.2344 127.211C37.6406 125.258 38.3906 123.43 39.4844 121.727C40.5938 120.008 41.4766 118.25 42.1328 116.453L41.6875 115.914H41.2188C40.4688 116.164 39.7578 116.469 39.0859 116.828C38.4141 117.172 37.75 117.57 37.0938 118.023L37.0234 118.188H34.8438V117.812C35.6406 117.203 36.4609 116.688 37.3047 116.266C38.1641 115.828 39.0703 115.539 40.0234 115.398H43.3281L43.9375 115.703C44.2344 116.047 44.3359 116.492 44.2422 117.039C43.4297 118.898 42.4688 120.695 41.3594 122.43C40.2656 124.164 39.5938 126.031 39.3438 128.031C39.4531 128.578 39.6797 129.055 40.0234 129.461L41.3125 130.141C42.2656 129.844 43.1641 129.367 44.0078 128.711L44.0781 128.57C44.9844 127.867 45.7891 127.086 46.4922 126.227L47.6875 124.797H47.8516C48.3516 123.938 48.8906 123.109 49.4688 122.312C50.0469 121.516 50.4062 120.617 50.5469 119.617L52.6562 119.523L52.75 120.273C52.4844 120.633 52.3828 121.039 52.4453 121.492C52.6484 122.648 52.9609 123.742 53.3828 124.773C53.8047 125.789 54.2891 126.773 54.8359 127.727H52.8203L52.6562 127.656C52.2031 127.109 51.8359 126.508 51.5547 125.852C51.2891 125.195 51.0547 124.547 50.8516 123.906H50.7109L49.3516 125.781H49.2109L48.4609 126.836L48.2266 126.906L47.6172 127.727L46.9375 128.336H46.7969L46.7266 128.57L46.1875 129.016C45.3438 129.766 44.3672 130.25 43.2578 130.469C42.1484 130.703 40.9922 130.766 39.7891 130.656ZM60.2266 130.586C59.1797 130.633 58.25 130.359 57.4375 129.766L57.3672 129.531L57.1562 129.391C56.8438 128.844 56.7422 128.188 56.8516 127.422C57.0547 126.578 57.3672 125.766 57.7891 124.984C58.2109 124.203 58.6719 123.438 59.1719 122.688L59.8516 121.867H60.0156L60.2969 121.328L60.5312 121.258V121.117C60.2344 119.664 59.9922 118.188 59.8047 116.688C59.6328 115.172 59.5 113.664 59.4062 112.164H61.5156C61.6094 113.367 61.7188 114.57 61.8438 115.773C61.9688 116.977 62.1328 118.156 62.3359 119.312H62.5C63.3906 118.312 64.5391 117.961 65.9453 118.258V118.633L64.0703 120.133L62.7109 121.422V121.633C63.0078 122.539 63.1875 123.492 63.25 124.492H61.1406L61.0703 123.602H60.9062C60.4062 124.352 59.9531 125.117 59.5469 125.898C59.1562 126.664 58.9609 127.523 58.9609 128.477L59.4062 129.32C60.0625 129.867 60.8125 130.141 61.6562 130.141C63.6094 130.047 65.4531 129.633 67.1875 128.898C68.9219 128.164 70.7422 127.672 72.6484 127.422V127.797C70.7422 128.859 68.7422 129.602 66.6484 130.023C64.5703 130.445 62.4297 130.633 60.2266 130.586ZM83.6406 131.125V129.391L84.3906 117.812H86.5V118.703C86.2969 120.766 86.1328 122.828 86.0078 124.891C85.8828 126.938 85.7734 129.016 85.6797 131.125H83.6406ZM75.5078 125.852C75.1641 125.648 74.8906 125.344 74.6875 124.938C74.5312 124.344 74.4531 123.734 74.4531 123.109C74.4531 122.484 74.4531 121.844 74.4531 121.188C74.5625 119.828 74.7109 118.5 74.8984 117.203C75.1016 115.891 75.3594 114.586 75.6719 113.289H77.6875V114.039C77.3438 115.602 77.0547 117.172 76.8203 118.75C76.6016 120.328 76.5156 121.945 76.5625 123.602L77.0312 125.102H77.2422C77.7422 124.695 78.3047 124.398 78.9297 124.211C79.5703 124.008 80.2656 123.953 81.0156 124.047V124.422C80.2656 125.078 79.4219 125.508 78.4844 125.711C77.5625 125.898 76.5703 125.945 75.5078 125.852ZM101.195 129.836C100.336 129.789 99.5547 129.562 98.8516 129.156C98.4453 128.703 98.2969 128.125 98.4062 127.422C98.8594 125.922 99.5 124.5 100.328 123.156C101.156 121.797 101.867 120.391 102.461 118.938L101.781 118.703C99.2344 119.156 96.7266 119.852 94.2578 120.789C91.8047 121.711 89.2969 122.367 86.7344 122.758V122.383C89.3906 121.336 92.1328 120.375 94.9609 119.5C97.8047 118.625 100.711 118.188 103.68 118.188L104.43 118.469L104.57 119.383C103.914 120.836 103.156 122.258 102.297 123.648C101.453 125.023 100.859 126.508 100.516 128.102L100.82 128.781C101.664 129.281 102.664 129.484 103.82 129.391C104.977 129.188 106.18 129.109 107.43 129.156V129.531L104.875 129.836H101.195ZM105.555 119.242V118.398L105.766 114.273H107.875V114.648L107.664 119.242H105.555ZM102.836 117.273V116.523L102.766 116.453V112.68H104.875V116.383L104.945 117.273H102.836Z" fill="#144895"/>
<path d="M70.3784 65.9461C76.438 65.9461 81.3514 61.0327 81.3514 54.9725C81.3514 48.9134 76.438 44 70.3784 44C64.3187 44 59.406 48.9133 59.406 54.9725C59.4059 61.0327 64.3186 65.9461 70.3784 65.9461Z" fill="#144895"/>
<path d="M70.3783 68.946C61.2974 68.946 56.7571 75 56 78.5315V94.3202C56 97.1629 58.3054 99.4684 61.1481 99.4684H79.6085C82.4513 99.4684 84.7566 97.163 84.7566 94.3202V78.5315C84 75 79.4593 68.946 70.3783 68.946Z" fill="#144895"/>
</svg>
