<svg width="75" height="89" viewBox="0 0 75 89" fill="none" xmlns="http://www.w3.org/2000/svg">
<path d="M5.78906 86.6562L4.35938 86.2109L4.28906 86L3.84375 85.7656C3.34375 85.0156 3.14062 84.1641 3.23438 83.2109C3.64062 81.2578 4.39062 79.4297 5.48438 77.7266C6.59375 76.0078 7.47656 74.25 8.13281 72.4531L7.6875 71.9141H7.21875C6.46875 72.1641 5.75781 72.4688 5.08594 72.8281C4.41406 73.1719 3.75 73.5703 3.09375 74.0234L3.02344 74.1875H0.84375V73.8125C1.64062 73.2031 2.46094 72.6875 3.30469 72.2656C4.16406 71.8281 5.07031 71.5391 6.02344 71.3984H9.32812L9.9375 71.7031C10.2344 72.0469 10.3359 72.4922 10.2422 73.0391C9.42969 74.8984 8.46875 76.6953 7.35938 78.4297C6.26562 80.1641 5.59375 82.0312 5.34375 84.0312C5.45312 84.5781 5.67969 85.0547 6.02344 85.4609L7.3125 86.1406C8.26562 85.8438 9.16406 85.3672 10.0078 84.7109L10.0781 84.5703C10.9844 83.8672 11.7891 83.0859 12.4922 82.2266L13.6875 80.7969H13.8516C14.3516 79.9375 14.8906 79.1094 15.4688 78.3125C16.0469 77.5156 16.4062 76.6172 16.5469 75.6172L18.6562 75.5234L18.75 76.2734C18.4844 76.6328 18.3828 77.0391 18.4453 77.4922C18.6484 78.6484 18.9609 79.7422 19.3828 80.7734C19.8047 81.7891 20.2891 82.7734 20.8359 83.7266H18.8203L18.6562 83.6562C18.2031 83.1094 17.8359 82.5078 17.5547 81.8516C17.2891 81.1953 17.0547 80.5469 16.8516 79.9062H16.7109L15.3516 81.7812H15.2109L14.4609 82.8359L14.2266 82.9062L13.6172 83.7266L12.9375 84.3359H12.7969L12.7266 84.5703L12.1875 85.0156C11.3438 85.7656 10.3672 86.25 9.25781 86.4688C8.14844 86.7031 6.99219 86.7656 5.78906 86.6562ZM26.2266 86.5859C25.1797 86.6328 24.25 86.3594 23.4375 85.7656L23.3672 85.5312L23.1562 85.3906C22.8438 84.8438 22.7422 84.1875 22.8516 83.4219C23.0547 82.5781 23.3672 81.7656 23.7891 80.9844C24.2109 80.2031 24.6719 79.4375 25.1719 78.6875L25.8516 77.8672H26.0156L26.2969 77.3281L26.5312 77.2578V77.1172C26.2344 75.6641 25.9922 74.1875 25.8047 72.6875C25.6328 71.1719 25.5 69.6641 25.4062 68.1641H27.5156C27.6094 69.3672 27.7188 70.5703 27.8438 71.7734C27.9688 72.9766 28.1328 74.1562 28.3359 75.3125H28.5C29.3906 74.3125 30.5391 73.9609 31.9453 74.2578V74.6328L30.0703 76.1328L28.7109 77.4219V77.6328C29.0078 78.5391 29.1875 79.4922 29.25 80.4922H27.1406L27.0703 79.6016H26.9062C26.4062 80.3516 25.9531 81.1172 25.5469 81.8984C25.1562 82.6641 24.9609 83.5234 24.9609 84.4766L25.4062 85.3203C26.0625 85.8672 26.8125 86.1406 27.6562 86.1406C29.6094 86.0469 31.4531 85.6328 33.1875 84.8984C34.9219 84.1641 36.7422 83.6719 38.6484 83.4219V83.7969C36.7422 84.8594 34.7422 85.6016 32.6484 86.0234C30.5703 86.4453 28.4297 86.6328 26.2266 86.5859ZM49.6406 87.125V85.3906L50.3906 73.8125H52.5V74.7031C52.2969 76.7656 52.1328 78.8281 52.0078 80.8906C51.8828 82.9375 51.7734 85.0156 51.6797 87.125H49.6406ZM41.5078 81.8516C41.1641 81.6484 40.8906 81.3438 40.6875 80.9375C40.5312 80.3438 40.4531 79.7344 40.4531 79.1094C40.4531 78.4844 40.4531 77.8438 40.4531 77.1875C40.5625 75.8281 40.7109 74.5 40.8984 73.2031C41.1016 71.8906 41.3594 70.5859 41.6719 69.2891H43.6875V70.0391C43.3438 71.6016 43.0547 73.1719 42.8203 74.75C42.6016 76.3281 42.5156 77.9453 42.5625 79.6016L43.0312 81.1016H43.2422C43.7422 80.6953 44.3047 80.3984 44.9297 80.2109C45.5703 80.0078 46.2656 79.9531 47.0156 80.0469V80.4219C46.2656 81.0781 45.4219 81.5078 44.4844 81.7109C43.5625 81.8984 42.5703 81.9453 41.5078 81.8516ZM67.1953 85.8359C66.3359 85.7891 65.5547 85.5625 64.8516 85.1562C64.4453 84.7031 64.2969 84.125 64.4062 83.4219C64.8594 81.9219 65.5 80.5 66.3281 79.1562C67.1562 77.7969 67.8672 76.3906 68.4609 74.9375L67.7812 74.7031C65.2344 75.1562 62.7266 75.8516 60.2578 76.7891C57.8047 77.7109 55.2969 78.3672 52.7344 78.7578V78.3828C55.3906 77.3359 58.1328 76.375 60.9609 75.5C63.8047 74.625 66.7109 74.1875 69.6797 74.1875L70.4297 74.4688L70.5703 75.3828C69.9141 76.8359 69.1562 78.2578 68.2969 79.6484C67.4531 81.0234 66.8594 82.5078 66.5156 84.1016L66.8203 84.7812C67.6641 85.2812 68.6641 85.4844 69.8203 85.3906C70.9766 85.1875 72.1797 85.1094 73.4297 85.1562V85.5312L70.875 85.8359H67.1953ZM71.5547 75.2422V74.3984L71.7656 70.2734H73.875V70.6484L73.6641 75.2422H71.5547ZM68.8359 73.2734V72.5234L68.7656 72.4531V68.6797H70.875V72.3828L70.9453 73.2734H68.8359Z" fill="#144895"/>
<path d="M36.3781 21.9461C42.4378 21.9461 47.3512 17.0327 47.3512 10.9725C47.3512 4.9134 42.4378 0 36.3781 0C30.3185 0 25.4058 4.91326 25.4058 10.9725C25.4056 17.0327 30.3183 21.9461 36.3781 21.9461Z" fill="#144895"/>
<path d="M36.3783 24.946C27.2974 24.946 22.7571 31 22 34.5315V50.3202C22 53.1629 24.3054 55.4684 27.1481 55.4684H45.6085C48.4513 55.4684 50.7566 53.163 50.7566 50.3202V34.5315C50 31 45.4593 24.946 36.3783 24.946Z" fill="#144895"/>
</svg>
