<svg width="140" height="160" viewBox="0 0 140 160" fill="none" xmlns="http://www.w3.org/2000/svg">
<rect width="140" height="160" rx="20" fill="#EAFDFF"/>
<path d="M35.7109 131.875V131.5L36.0859 131.195L36.1562 129.695H36.0156L35.2656 130.141L35.1953 130.375C34.2891 130.625 33.3359 130.695 32.3359 130.586C32.0859 130.086 31.9844 129.539 32.0312 128.945L32.2422 127.047H34.2812V128.102L34.2109 128.945H34.3516L36.2266 128.852V128.031L36.0859 125.711L33.4609 125.547L33.3906 124.867L33.9766 123.977H34.1406L34.3516 123.508L35.5703 122.383L36.625 121.422H33.4609L32.9219 121.117C32.7812 120.82 32.7344 120.492 32.7812 120.133L33.6016 118.773L34.1406 118.188L34.8906 117.414H35.0312L35.1016 117.203L35.7812 116.594H35.9453L36.0156 116.383L36.3906 115.984L38.6406 114.273H40.6797V114.648L39.0156 115.984L38.4297 116.523L36.8359 117.953H36.6953L36.0859 118.773L35.8516 118.844C35.3516 119.453 35.0312 120.109 34.8906 120.812L35.4766 120.953C36.1328 120.766 36.8125 120.648 37.5156 120.602C38.2188 120.539 38.9453 120.531 39.6953 120.578V121.047L37.6562 122.852C36.9062 123.445 36.2344 124.117 35.6406 124.867V125.102H36.0859C36.6953 124.898 37.3438 124.758 38.0312 124.68C38.7344 124.602 39.4375 124.594 40.1406 124.656V124.188L40 121.703H42.0391L42.4141 125.781H40.3047L40.2344 125.031H40L38.125 125.406V125.617L38.2656 126.367V130.656L38.0547 131.711C37.2891 131.867 36.5078 131.922 35.7109 131.875ZM49.5625 130.961L48.9531 130.656L48.8828 130.445L48.5781 130.211L48.3438 128.711C48.5 127.602 48.8047 126.547 49.2578 125.547H51.2734V126.086C50.8359 127.086 50.5625 128.164 50.4531 129.32L50.8984 130.211L51.3672 130.281C52.3203 129.781 53.3984 129.609 54.6016 129.766V130.141C53.8984 130.594 53.1016 130.852 52.2109 130.914C51.3359 130.992 50.4531 131.008 49.5625 130.961ZM44.0547 130.75L43.9141 130.656L43.8438 130C43.9844 129.094 44.2188 128.219 44.5469 127.375C44.875 126.516 45.2188 125.68 45.5781 124.867H47.6641V125.242C47.3203 126.055 46.9844 126.859 46.6562 127.656C46.3281 128.453 46.1172 129.281 46.0234 130.141H46.6094V130.445C45.8594 130.742 45.0078 130.844 44.0547 130.75ZM39.9297 130.07V130C39.4297 129.188 39.0781 128.305 38.875 127.352H40.9844C41.3281 128.258 41.6797 129.164 42.0391 130.07H39.9297ZM42.7891 126.086V125.852L42.7188 123.672C42.8594 122.609 43.1094 121.609 43.4688 120.672H45.4844V121.188L45.1797 122.172H45.4141C46.5703 121.719 47.7734 121.383 49.0234 121.164C50.2734 120.93 51.5781 120.859 52.9375 120.953L53.7578 121.258L53.8516 122.242L53.0078 123.812L50.8281 123.906V123.508C51.2812 122.961 51.5859 122.359 51.7422 121.703L51.0625 121.492C50 121.695 48.9766 121.984 47.9922 122.359C47.0234 122.734 46.0156 123.023 44.9688 123.227C44.8125 123.977 44.7578 124.773 44.8047 125.617L44.8984 126.086H42.7891ZM44.7344 119.383V119.008L47.0781 118.703V118.258L47.0078 116.664H46.5391C45.8984 116.867 45.2266 117.008 44.5234 117.086C43.8203 117.164 43.0938 117.18 42.3438 117.133V116.758L47.0078 115.914L47.1484 112.68L47.0781 111.719H49.0938L49.1875 114.789L49.0938 115.609H49.5625C50.2031 115.516 50.8594 115.461 51.5312 115.445C52.2188 115.414 52.9141 115.398 53.6172 115.398V115.773L49.1875 116.289L49.0938 118.469H51.5078V118.844C50.3516 118.906 49.2344 119.023 48.1562 119.195C47.0781 119.367 45.9375 119.43 44.7344 119.383ZM58.8906 130.281V129.602C58.2969 128.758 58.0234 127.758 58.0703 126.602L58.4453 125.711C58.9922 125.258 59.6406 125.031 60.3906 125.031C61.1562 125.031 61.9141 125.031 62.6641 125.031C63.3047 125.125 63.9141 125.289 64.4922 125.523C65.0703 125.742 65.6641 125.953 66.2734 126.156V125.852L65.2891 120.438H64.6094C63.1562 120.641 61.7266 120.867 60.3203 121.117C58.9141 121.367 57.4375 121.492 55.8906 121.492L55.8203 121.047C57.4141 120.891 58.9844 120.68 60.5312 120.414C62.0938 120.133 63.6562 119.914 65.2188 119.758V119.453L64.6797 115.773H63.9297C62.9297 115.82 61.9375 115.883 60.9531 115.961C59.9844 116.039 59 116.047 58 115.984L57.9062 115.539L64.5391 115.234V114.859L63.8594 110.805H65.9688L66.6484 114.789H68.8281V115.164C68.1719 115.414 67.4922 115.562 66.7891 115.609V116.078L67.3281 119.242L69.5078 119.312V119.758L67.3984 120.062V120.273C67.6016 121.539 67.8281 122.797 68.0781 124.047C68.3281 125.297 68.4766 126.578 68.5234 127.891L66.2031 127.961C65.4375 127.414 64.6406 126.93 63.8125 126.508C63 126.07 62.1406 125.75 61.2344 125.547C60.7812 125.797 60.4531 126.125 60.25 126.531L60.1797 127.422C60.5234 128.328 60.875 129.258 61.2344 130.211L58.8906 130.281ZM81.6016 130.961V130.586L82.3516 130.141C83.1016 128.938 83.7109 127.688 84.1797 126.391C84.6641 125.078 84.9609 123.695 85.0703 122.242C84.9609 121.539 84.7344 120.883 84.3906 120.273C83.7812 119.68 83.0547 119.406 82.2109 119.453C81.1016 119.703 80.0234 120.078 78.9766 120.578C78.7734 121.531 78.6484 122.516 78.6016 123.531C78.5547 124.531 78.5312 125.531 78.5312 126.531L78.6719 128.195H76.5625L76.4219 124.656L76.6328 121.867H76.4922L74.4531 123.297L73.3984 124.352H71.2891V123.977L72.2734 122.992C72.9766 122.445 73.7031 121.945 74.4531 121.492C75.2031 121.039 75.9844 120.633 76.7969 120.273L77.3125 116.758H79.3516V117.508L79.0469 119.312H79.3516C80.0547 119.109 80.8047 119 81.6016 118.984C82.4141 118.953 83.2188 118.938 84.0156 118.938C84.7188 118.984 85.3672 119.18 85.9609 119.523L86.875 120.742C87.0781 121.445 87.1797 122.195 87.1797 122.992C87.0234 124.398 86.7031 125.727 86.2188 126.977C85.75 128.227 85.1172 129.406 84.3203 130.516C83.5703 130.969 82.6641 131.117 81.6016 130.961ZM89.125 124.188V123.977C88.8281 122.773 88.6562 121.539 88.6094 120.273V117.039H90.7188V120.367L91.2344 124.188H89.125ZM103.094 131.805V131.43C103.438 130.773 103.773 130.094 104.102 129.391C104.43 128.688 104.594 127.938 104.594 127.141L104.289 126.602C103.992 126.305 103.617 126.18 103.164 126.227L98.7344 127.656H95.7109L94.9609 127.281C94.5547 126.672 94.3516 125.992 94.3516 125.242C94.3516 124.492 94.3516 123.742 94.3516 122.992C94.4609 122.195 94.5625 121.422 94.6562 120.672C94.7656 119.906 95.0703 119.227 95.5703 118.633C96.5234 118.133 97.625 117.953 98.875 118.094V118.469C98.375 118.578 97.9219 118.781 97.5156 119.078C97.0156 119.875 96.7109 120.766 96.6016 121.75C96.5078 122.734 96.4375 123.727 96.3906 124.727C96.3438 125.57 96.5938 126.32 97.1406 126.977L97.4453 127.047C98.1953 126.797 98.9609 126.539 99.7422 126.273C100.523 125.992 101.312 125.805 102.109 125.711H105.109C105.672 125.758 106.125 125.977 106.469 126.367C106.672 126.883 106.75 127.461 106.703 128.102C106.547 128.758 106.328 129.391 106.047 130C105.781 130.594 105.5 131.195 105.203 131.805H103.094ZM98.8047 116.664V116.289H98.9453C99.5547 115.492 99.9922 114.633 100.258 113.711C100.539 112.773 100.727 111.805 100.82 110.805H102.93V111.414C102.836 112.305 102.648 113.164 102.367 113.992C102.102 114.82 101.711 115.617 101.195 116.383L100.914 116.664H98.8047Z" fill="#144895"/>
<g clip-path="url(#clip0_557_211)">
<path d="M59.7916 82.125H46.6666V95.25" stroke="#144895" stroke-width="4" stroke-linecap="round" stroke-linejoin="round"/>
<path d="M80.2084 55.875H93.3334V42.75" stroke="#1CE8FF" stroke-width="4" stroke-linecap="round" stroke-linejoin="round"/>
<path d="M96.2499 69C96.2508 74.7792 94.3444 80.3972 90.8266 84.9825C87.3087 89.5677 82.376 92.8638 76.7936 94.3595C71.2113 95.8552 65.2914 95.4669 59.9523 93.2548C54.6132 91.0427 50.1533 87.1305 47.2645 82.125" stroke="#144895" stroke-width="4" stroke-linecap="round" stroke-linejoin="round"/>
<path d="M43.75 69C43.7491 63.2208 45.6555 57.6028 49.1734 53.0175C52.6912 48.4323 57.624 45.1362 63.2063 43.6405C68.7886 42.1448 74.7085 42.5331 80.0477 44.7452C85.3868 46.9573 89.8467 50.8695 92.7354 55.875" stroke="#1CE8FF" stroke-width="4" stroke-linecap="round" stroke-linejoin="round"/>
</g>
<defs>
<clipPath id="clip0_557_211">
<rect width="70" height="70" fill="white" transform="translate(35 34)"/>
</clipPath>
</defs>
</svg>
